<?xml version="1.0" encoding="UTF-8"?>
<svg id="Calque_1" data-name="Calque 1" xmlns="http://www.w3.org/2000/svg" viewBox="0 0 300 100">
  <defs>
    <style>
      .cls-1 {
        fill-rule: evenodd;
      }
    </style>
  </defs>
  <g id="DESIGN">
    <g id="g37">
      <path id="Layer" d="M96.46,44.89h4.57v17.78h-4.57v-17.78Z"/>
      <path id="path7" d="M85.7,42.82v2.07h-2.8v3.8h2.8v13.98h4.61v-13.98h3.77v-3.8h-3.77v-2.07c0-1.29.85-2.1,2.17-2.1h1.59v-3.87h-2.33c-3.72,0-6.04,2.28-6.04,5.97h0Z"/>
      <path id="path9" d="M98.71,36.85c-1.51,0-2.84.96-2.84,2.62s1.29,2.66,2.84,2.66c1.77,0,2.87-1.29,2.87-2.66,0-1.55-1.25-2.62-2.87-2.62Z"/>
      <path id="path11" class="cls-1" d="M18.46,36.85h4.61v25.82h-4.65l.04-2.55c-1.29,1.81-2.84,2.99-5.61,2.99-4.54,0-8.37-3.43-8.37-9.37,0-5.35,3.36-9.3,8.37-9.3,2.36,0,4.21.85,5.61,2.88v-10.48ZM18.53,53.77c0-3.06-1.66-5.31-4.68-5.31s-4.72,2.29-4.72,5.27,1.73,5.35,4.72,5.35c3.14,0,4.68-2.36,4.68-5.31Z"/>
      <path id="path13" d="M74.55,51.45h8.16v3.87h-8.16v-3.87Z"/>
      <path id="path15" d="M37.23,52.82c-1.07-.37-2.03-.67-3.28-.96-1.25-.3-3.61-.55-3.61-2.1,0-1.07.96-1.73,2.51-1.73s2.58.74,2.8,1.92h4.31c-.44-3.39-3.17-5.5-7.08-5.5-4.32,0-7.01,2.17-7.01,5.61,0,1.66.89,2.84,2.21,3.57,1.51.85,3.25,1.3,4.5,1.59,3.17.74,3.46,1.44,3.46,2.35,0,1.22-1.07,1.96-2.73,1.96-1.85,0-3.18-.96-3.47-2.51h-4.61c.44,3.73,3.57,6.09,8.15,6.09s7.23-2.25,7.23-5.79c0-2.32-1.26-3.8-3.39-4.5h0Z"/>
      <path id="path17" d="M64.78,44.44c-2.55,0-4.91,1.26-6.13,3.21-1.1-1.95-3.24-3.21-5.53-3.21s-4.43,1.11-5.64,2.84v-2.4h-4.36v17.78h4.61v-9.19c0-3.13,1.58-5.13,4.09-5.13,1.99,0,3.25,1.81,3.25,4.68v9.63h4.61v-9.19c0-3.13,1.58-5.13,4.13-5.13,1.96,0,3.21,1.81,3.21,4.68v9.63h4.61v-10.03c0-5.02-2.66-8.19-6.86-8.19h0Z"/>
      <path id="path19" d="M108.78,48.2v-3.32h-4.35v17.78h4.57v-8.01c0-3.39,1.8-5.53,4.72-5.53h1.77v-4.24c-.74,0-1.77.04-2.28.08-1.81.15-3.28,1.21-4.43,3.24h0Z"/>
      <path id="path21" d="M205.1,48.39c1.92,0,3.39.92,3.95,2.73h4.83c-.96-4.54-4.57-6.68-8.74-6.68-5.61,0-9.26,4.21-9.26,9.33s3.61,9.33,9.26,9.33c4.94,0,7.93-2.91,8.74-6.68h-4.83c-.59,1.92-2.07,2.77-3.95,2.77-2.66,0-4.54-2.25-4.54-5.42s1.73-5.38,4.54-5.38Z"/>
      <path id="path23" d="M139.09,44.44c-2.55,0-4.9,1.26-6.12,3.21-1.11-1.95-3.25-3.21-5.53-3.21s-4.43,1.11-5.65,2.84v-2.4h-4.35v17.78h4.61v-9.19c0-3.13,1.59-5.13,4.09-5.13,2,0,3.25,1.81,3.25,4.68v9.63h4.61v-9.19c0-3.13,1.58-5.13,4.13-5.13,1.96,0,3.21,1.81,3.21,4.68v9.63h4.61v-10.03c0-5.02-2.66-8.19-6.86-8.19h0Z"/>
      <path id="path25" d="M226.45,44.44c-2.17,0-4.31,1.22-5.53,3.17v-10.76h-4.61v25.82h4.61v-9.19c0-3.13,1.58-5.13,4.09-5.13,2.84,0,3.43,1.85,3.43,4.68v9.63h4.57v-10.03c0-4.28-1.36-8.19-6.56-8.19h0Z"/>
      <path id="path27" d="M191.09,36.85c-1.37,0-2.84.85-2.84,2.62s1.4,2.66,2.84,2.66c1.69,0,2.87-1.22,2.87-2.66,0-1.58-1.29-2.62-2.87-2.62Z"/>
      <path id="path29" class="cls-1" d="M166.6,53.15c0,.37-.08,1.29-.19,1.73h-13.38c.15,3.02,2.35,4.46,4.61,4.46,1.7,0,3.1-.85,3.8-2.28h4.64c-1.4,4.35-4.98,6.05-8.4,6.05-5.61,0-9.22-3.87-9.22-9.19s3.32-9.48,9.26-9.48c5.09,0,8.89,3.69,8.89,8.71h0ZM161.95,52c-.19-2.58-2.21-3.83-4.24-3.83s-4.17,1.14-4.61,3.84h8.85Z"/>
      <path id="path31" d="M188.8,44.89h4.57v17.78h-4.57v-17.78Z"/>
      <path id="path33" d="M179.1,44.44c-2.48,0-4.68,1.33-5.75,3.43v-2.99h-4.35v17.78h4.61v-9.19c0-3.13,1.55-5.13,4.05-5.13,2.14,0,3.47,1.81,3.47,4.68v9.63h4.61v-10.03c0-4.28-1.44-8.19-6.63-8.19h0Z"/>
      <path id="path35" d="M286.16,44.44c-4.71,0-8.6,3.48-9.24,8.02-.65-4.54-4.54-8.02-9.25-8.02-2.72,0-5.16,1.17-6.88,3.03-1.71-1.86-4.15-3.03-6.87-3.03-5.16,0-9.35,4.19-9.35,9.36s4.19,9.35,9.35,9.35c2.72,0,5.16-1.17,6.87-3.02,1.71,1.85,4.16,3.02,6.88,3.02,4.71,0,8.6-3.48,9.25-8.01.65,4.53,4.54,8.01,9.24,8.01,5.17,0,9.36-4.19,9.36-9.35s-4.19-9.36-9.36-9.36h0Z"/>
    </g>
  </g>
</svg>