<?xml version="1.0" encoding="UTF-8"?>
<svg id="Calque_1" data-name="Calque 1" xmlns="http://www.w3.org/2000/svg" viewBox="0 0 300 100">
  <defs>
    <style>
      .cls-1 {
        fill-rule: evenodd;
      }
    </style>
  </defs>
  <g id="layer1">
    <g id="g21183">
      <path id="path20840" d="M234.86,35h-4.88c-.35-1.95-2.01-3.03-3.81-3.04-1.85-.02-3.8,1.35-3.8,3.97,0,2.2,2.14,3.69,3.93,3.69,1.17,0,3.25-.95,3.25-2.49,0-1.11-1.94-1.01-2.07-1.01l-2.93-.13v-.13h10.38v.46c-.31,4.94-4.77,8.41-9.01,8.09-7.91-.69-8.3-7.99-8.3-8.61.04-4.68,3.74-8.6,8.71-8.6,3.84,0,7.99,2.8,8.54,7.81"/>
      <path id="path20842" d="M81.01,48.8v3.12h7.07c-.15,4.47-4.72,8.13-8.96,8.13-5.92,0-10.63-5.44-10.63-11.17,0-6.13,4.79-11.1,10.92-11.1,3.34,0,6.64,1.78,8.6,4.46l2.39-2.29c-2.68-3.38-6.89-5.29-11.14-5.29-7.87,0-14.19,6.45-14.19,14.32s6.17,14.19,13.82,14.19,12.96-5.77,12.96-13.28v-1.09h-10.85"/>
      <path id="path20844" class="cls-1" d="M96.72,35.56c-1.23,0-2.25,1.01-2.25,2.29s1.02,2.21,2.25,2.21,2.25-.97,2.25-2.21-1.02-2.29-2.25-2.29ZM98.35,45.62h-3.27v16.97h3.27v-16.97"/>
      <path id="path20846" d="M104.37,45.62h-3.66l8.53,17.56,8.56-17.56h-3.66l-4.9,10.6-4.86-10.6"/>
      <path id="path20848" class="cls-1" d="M135.35,45.62h-3.26v2.83h-.07c-1.35-2.03-3.38-3.34-5.88-3.34-4.93,0-8.02,4.25-8.02,8.9s2.94,9.18,8.13,9.18c2.43,0,4.46-1.31,5.77-3.24h.07v2.65h3.26v-16.97ZM126.76,60.27c-3.45,0-5.38-2.97-5.38-6.17s2-6.09,5.38-6.09,5.51,2.79,5.51,6.09-1.96,6.17-5.51,6.17"/>
      <path id="path20850" d="M139.67,45.62v9.75c0,4.64,2.18,7.81,7.19,7.81s7.18-3.16,7.18-7.81v-9.75h-3.27v9.39c0,2.72-.69,5.11-3.91,5.11s-3.93-2.39-3.93-5.11v-9.39h-3.26"/>
      <path id="path20852" class="cls-1" d="M171.28,62.59h3.26v-31.49h-3.26v17.34h-.07c-1.35-2.03-3.38-3.34-5.92-3.34-4.91,0-7.99,4.25-7.99,8.9s2.9,9.18,8.13,9.18c2.39,0,4.46-1.31,5.77-3.24h.07v2.65ZM165.94,60.27c-3.45,0-5.38-2.97-5.38-6.17s2-6.09,5.38-6.09,5.52,2.79,5.52,6.09-1.96,6.17-5.52,6.17"/>
      <path id="path20854" class="cls-1" d="M194.2,45.62h-3.27v2.83h-.07c-1.34-2.03-3.37-3.34-5.87-3.34-4.94,0-8.02,4.25-8.02,8.9s2.93,9.18,8.13,9.18c2.43,0,4.46-1.31,5.76-3.24h.07v2.65h3.27v-16.97ZM185.6,60.27c-3.45,0-5.38-2.97-5.38-6.17s2-6.09,5.38-6.09,5.51,2.79,5.51,6.09-1.96,6.17-5.51,6.17"/>
      <path id="path20856" d="M202.65,45.62h-3.26v16.97h3.26v-7.79c0-3.09,0-6.78,4.21-6.78,3.34,0,3.74,1.96,3.74,4.86v9.72h3.27v-10.12c0-4.14-1.24-7.37-6.03-7.37-2.07,0-4.1.99-5.12,2.8h-.07v-2.29"/>
    </g>
  </g>
</svg>