<?xml version="1.0" encoding="UTF-8"?>
<svg id="Calque_1" data-name="Calque 1" xmlns="http://www.w3.org/2000/svg" viewBox="0 0 300 100" fill="white">
  <path d="M59.88,58.52c1.57.67,3.26,1.02,4.96,1.04,2.05,0,3.14-.72,3.14-1.84,0-1.02-.94-1.64-3.32-2.33-3.29-.99-5.46-2.53-5.46-4.99,0-2.85,2.85-5.02,7.49-5.02,2.26,0,3.2.63,4.38,1.1l-1,3.03c-.76-.32-1.53-1.05-3.44-1.05s-2.87.77-2.87,1.61c0,1.07,1.16,1.35,3.67,2.39,3.26,1.34,4.81,2.66,4.81,5.04,0,2.81-2.22,5.16-7.66,5.16-2.26,0-4.49-.52-5.61-1.04l.9-3.11Z"/>
  <path d="M119.49,58.52c1.57.67,3.26,1.02,4.96,1.04,2.05,0,3.14-.72,3.14-1.84,0-1.02-.94-1.64-3.32-2.33-3.29-.99-5.46-2.53-5.46-4.99,0-2.85,2.85-5.02,7.49-5.02,2.26,0,3.21.63,4.38,1.1l-1,3.03c-.76-.32-1.53-1.05-3.44-1.05s-2.87.77-2.87,1.61c0,1.07,1.15,1.35,3.67,2.39,3.26,1.34,4.81,2.66,4.81,5.04,0,2.81-2.23,5.16-7.66,5.16-2.26,0-4.49-.52-5.61-1.04l.9-3.11Z"/>
  <polygon points="87.43 55.31 83.06 55.31 83.06 59.29 91.43 59.29 89.9 62.39 78.83 62.39 78.83 45.66 91.02 45.66 89.9 48.76 83.06 48.76 83.06 52.24 88.7 52.24 87.43 55.31"/>
  <polygon points="159.04 55.31 154.67 55.31 154.67 59.29 163.04 59.29 161.51 62.39 150.44 62.39 150.44 45.66 162.63 45.66 161.51 48.76 154.67 48.76 154.67 52.24 160.32 52.24 159.04 55.31"/>
  <path d="M96.82,62.39v-16.75h3.77l7.67,10.57.05-10.57h3.77l.06,16.85-3.94-.11-7.56-10.3c.15,2.23-.01,10.3-.01,10.3h-3.8Z"/>
  <path d="M168.24,62.39v-16.75h3.77l7.67,10.58.05-10.57h3.77l.06,16.85-3.94-.11-7.56-10.31c.15,2.23,0,10.3,0,10.3h-3.81Z"/>
  <rect x="138.53" y="45.65" width="4.46" height="16.74"/>
  <polygon points="194.84 48.83 188.95 48.83 188.95 45.65 205.81 45.65 204.53 48.83 199.3 48.83 199.3 62.39 194.84 62.39 194.84 48.83"/>
  <path d="M72.92,25.3c-12.18,3.53-20.46,6.34-29,7.88-7.61,1.38-17.94,1.57-25.19.41-5.98-.96-13.7-4.57-13.7-4.57l-1.25,2.22s6.92,3.74,16.61,5.12c9.38,1.34,18.2,2.01,37.92-2.77,19.9-4.82,24.88-7.2,38.75-7.2,12.46,0,31.11,6.06,37.34,12.15l2.1-4.81s-13.5-9.57-27.13-11.48c-4.12-.62-8.29-.95-12.46-.98-7.66,0-14.64,1.31-24.01,4.02"/>
  <path d="M216.08,51.52h3.42c2.85,0,4.41,1.01,4.41,2.84,0,1.3-.78,2.2-2.29,2.48v.04c1.88.22,2.94,1.2,2.94,2.77,0,1.98-1.76,3.16-4.85,3.16h-3.62v-11.28ZM218.22,56.15h1.49c1.33,0,1.98-.5,1.98-1.52s-.68-1.5-2.26-1.5h-1.21v3.02ZM219.72,61.19c1.81,0,2.61-.58,2.61-1.78s-.73-1.72-2.46-1.72h-1.66v3.5h1.5Z"/>
  <path d="M230.33,51.52h7.19v1.67h-5.06v2.99h4.6v1.67h-4.6v3.26h5.06v1.67h-7.19v-11.28Z"/>
  <path d="M246.39,51.52h2.14l4.15,11.28h-2.27l-.8-2.39h-4.36l-.82,2.39h-2.17l4.14-11.28ZM245.73,58.85h3.42l-1.71-5-1.71,5Z"/>
  <path d="M257.7,58.27v-6.75h2.14v6.85c0,1.81.91,2.79,2.43,2.79s2.43-.96,2.43-2.79v-6.85h2.14v6.75c0,2.99-1.73,4.7-4.56,4.7s-4.56-1.71-4.56-4.7Z"/>
  <path d="M275.61,53.19h-3.37v-1.67h8.87v1.67h-3.37v9.6h-2.14v-9.6Z"/>
  <path d="M288.93,58.54l-3.76-7.02h2.29l2.58,5.2,2.58-5.2h2.21l-3.76,7.02v4.25h-2.13v-4.25Z"/>
  <path d="M206.99,47.24c-.03-.91.68-1.67,1.59-1.7s1.67.68,1.7,1.59c.03.91-.68,1.67-1.59,1.7-.02,0-.04,0-.06,0-.87.04-1.61-.64-1.65-1.51,0-.03,0-.05,0-.08ZM209.99,47.24c.02-.75-.57-1.37-1.32-1.38s-1.37.57-1.38,1.32.57,1.37,1.32,1.38c.01,0,.02,0,.03,0,.7.04,1.31-.49,1.35-1.19,0-.04,0-.09,0-.13ZM207.98,46.42h.7c.44,0,.68.15.68.44,0,.23-.15.37-.41.4h0c.29.02.36.15.36.4v.12c0,.1.02.19.07.27h-.37c-.05-.08-.07-.17-.06-.26v-.11c0-.24-.05-.3-.22-.3h-.4v.67h-.36v-1.64ZM208.34,46.68v.48h.33c.2,0,.32-.08.32-.26s-.09-.22-.32-.22h-.33Z"/>
</svg>