<?xml version="1.0" encoding="UTF-8"?>
<svg id="Calque_1" data-name="Calque 1" xmlns="http://www.w3.org/2000/svg" viewBox="0 0 512 512">
  <defs>
    <style>
      .cls-1 {
        fill: #82bde8;
      }

      .cls-2 {
        fill: #2975bb;
      }

      .cls-3 {
        fill: #253267;
      }
    </style>
  </defs>
  <path class="cls-1" d="M273.8,211.55c-47.13,0-85.26-38.22-85.26-85.26,0-16.91,4.95-32.74,13.49-45.96,19.79-16.64,38.49,26.89,50.01,45.96,11.6,19.07,38.76,17.63,38.76,17.63l16.73,60.71c-10.34,4.41-21.77,6.93-33.73,6.93"/>
  <path class="cls-2" d="M188.54,131.33c0-7.2.9-14.12,2.61-20.87,1.35-4.32,2.52-8,3.42-10.61l1.17-2.88c-5.4,19.43,5.04,41.37,31.66,50.46,26.62,9.08,92.91-8,97.22-56.57,2.07-23.56,5.67-24.01,13.49-15.47,2.16,2.52,4.23,5.13,6.12,7.82l.63.99c8.99,13.49,14.21,29.68,14.21,47.13,0,47.13-38.22,85.26-85.26,85.26s-85.26-38.13-85.26-85.26"/>
  <path class="cls-1" d="M313.19,93.73s12.05-25.18-11.06-51.36c-23.11-26.08-32.65,2.07-12.05,16.19,9.71,6.57,29.23,20.15,23.11,35.17"/>
  <path class="cls-3" d="M98.06,481.37c-12.14,0-22.48-4.32-31.12-12.86-8.54-8.54-12.86-18.98-12.86-31.12s4.32-22.48,12.86-31.12c8.63-8.63,18.98-12.86,31.12-12.86s22.48,4.32,31.12,12.86c8.54,8.54,12.86,18.98,12.86,31.12s-4.32,22.48-12.86,31.12c-8.63,8.63-18.98,12.86-31.12,12.86M98.06,400.7c-10.07,0-18.71,3.6-25.9,10.79-7.2,7.2-10.7,15.83-10.7,25.9s3.6,18.71,10.7,25.9c7.2,7.2,15.83,10.7,25.9,10.7s18.71-3.6,25.9-10.7c7.2-7.2,10.79-15.83,10.79-25.9s-3.6-18.71-10.79-25.9c-7.2-7.2-15.83-10.79-25.9-10.79"/>
  <path class="cls-3" d="M197.17,481.37c-12.14,0-22.48-4.32-31.12-12.95-8.63-8.54-12.95-18.98-12.95-31.12s4.32-22.57,12.95-31.21c8.54-8.63,18.98-12.95,31.12-12.95,9.98,0,18.98,3.06,26.89,9.17l1.44,2.43-.72,2.7-2.43,1.44-2.7-.72c-6.57-5.04-14.03-7.55-22.39-7.55-10.07,0-18.71,3.6-25.9,10.79s-10.7,15.83-10.7,25.9,3.6,18.71,10.7,25.9c7.2,7.2,15.83,10.7,25.9,10.7,9.53,0,17.72-3.15,24.73-9.53l2.61-.99,2.61,1.17.99,2.61-1.26,2.61c-8.45,7.82-18.35,11.6-29.77,11.6"/>
  <polygon class="cls-3" points="244.93 481.37 242.41 480.29 241.24 477.68 241.24 397.01 242.41 394.4 244.93 393.32 293.68 393.41 296.19 394.49 297.36 397.1 296.19 399.71 293.68 400.79 248.62 400.7 248.62 433.7 282.34 433.7 284.86 434.78 286.03 437.3 284.86 439.91 282.34 440.99 248.62 440.99 248.62 474.09 293.68 474.09 296.19 475.17 297.36 477.68 296.19 480.29 293.68 481.37 244.93 481.37"/>
  <path class="cls-3" d="M307.53,481.1l-1.98-1.98v-2.79l8.54-20.6v-.09l24.82-59.99.27-.63.27-.27.27-.27.36-.27.27-.18,1.26-.54h.36l.45-.09.36.09h.27l1.35.54.27.18.27.27.27.27.27.27.36.63,24.82,59.99v.09l8.54,20.6v2.79l-1.98,1.98-1.44.36-3.33-2.25-7.55-18.26h-44.79l-7.55,18.26-3.42,2.25h-.72l-.9-.36ZM361.67,453.49l-19.43-46.77-19.34,46.77h38.76Z"/>
  <polygon class="cls-3" points="455.12 480.11 455.12 480.02 455.03 480.02 398.91 407.62 398.91 477.68 397.83 480.29 395.22 481.37 392.61 480.29 391.53 477.68 391.53 396.92 393.96 393.41 398.1 394.67 454.31 466.98 454.31 396.92 455.3 394.31 457.91 393.23 460.51 394.31 461.59 396.92 461.59 477.68 461.59 477.95 461.5 478.31 461.41 478.67 461.32 479.03 461.23 479.3 461.05 479.66 460.87 479.93 460.6 480.2 460.33 480.47 460.15 480.65 460.06 480.74 459.88 480.83 459.52 481.01 459.25 481.19 458.8 481.28 458.53 481.37 457.91 481.37 457.19 481.37 456.92 481.28 456.47 481.1 456.2 480.92 455.75 480.65 455.48 480.47 455.3 480.29 455.12 480.11"/>
  <path class="cls-3" d="M160.48,271.45c7.02,0,12.95,2.34,17.99,6.93,4.95,4.59,7.37,10.07,7.37,16.55s-2.34,11.6-6.93,16.1c-4.68,4.5-10.25,6.93-17,7.29h-1.17l-.27.09-.18-.09h-23.56v35.8l-1.08,2.52-2.52,1.08-2.52-1.08-1.08-2.52v-78.97l1.08-2.52,2.52-1.08h27.34v-.09ZM161.02,311.03c4.86-.09,9.08-1.71,12.5-4.86,3.51-3.15,5.22-6.93,5.22-11.33s-1.8-8.27-5.31-11.51c-3.6-3.15-7.82-4.77-12.86-4.77h-23.83v32.47h24.28Z"/>
  <path class="cls-3" d="M254.91,271.63l2.52.99.99,2.52v52.88c0,8.09-2.88,15.11-8.63,20.87-5.76,5.76-12.77,8.63-20.87,8.63s-15.11-2.88-20.87-8.63c-5.76-5.76-8.63-12.77-8.63-20.87v-52.88l.99-2.52,2.52-.99,2.43.99.99,2.52v52.88c0,6.21,2.16,11.51,6.57,15.83,4.41,4.41,9.62,6.57,15.83,6.57s11.42-2.16,15.83-6.57,6.57-9.62,6.57-15.83v-52.88l.99-2.52,2.79-.99"/>
  <path class="cls-3" d="M307.17,271.63c6.93,0,12.86,2.25,17.81,6.75,4.86,4.5,7.38,9.98,7.38,16.37,0,5.67-1.98,10.7-6.03,15.02-3.96,4.32-8.9,6.93-14.84,7.82l17.09,34.9.18,2.7-1.8,2.07-1.53.36-3.15-1.98-18.62-37.68h-20.06v35.53l-1.08,2.52-2.52.99-2.52-.99-.99-2.52v-78.34l.99-2.52,2.52-.99h27.16ZM325.25,294.75c0-4.41-1.8-8.18-5.31-11.33s-7.73-4.77-12.77-4.77h-23.56v32.11h24.01c4.86-.09,9.08-1.71,12.41-4.86,3.42-2.97,5.22-6.75,5.22-11.15"/>
  <polygon class="cls-3" points="350.25 357.62 347.73 356.54 346.65 354.02 346.65 274.96 347.73 272.44 350.25 271.36 397.92 271.45 400.43 272.53 401.51 275.05 400.43 277.66 397.92 278.65 353.85 278.56 353.85 310.85 386.85 310.85 389.37 312.02 390.45 314.53 389.37 317.05 386.85 318.13 353.85 318.13 353.85 350.42 397.92 350.42 400.43 351.5 401.51 354.02 400.43 356.54 397.92 357.62 350.25 357.62"/>
</svg>