<?xml version="1.0" encoding="UTF-8"?>
<svg id="Calque_1" data-name="Calque 1" xmlns="http://www.w3.org/2000/svg" viewBox="0 0 512 512">
  <defs>
    <style>
      .cls-1 {
        fill: #9ec7c0;
      }
    </style>
  </defs>
  <g>
    <path class="cls-1" d="M48.6,422.87c-.42,0-.85,0-1.06-.42-.21-.21-.42-.64-.42-.85v-15.27c0-.42,0-.64.42-.85.21-.21.64-.42.85-.42h7.21c.85,0,1.7.21,2.55.64s1.27,1.06,1.91,1.91c.42.85.64,1.7.64,2.76s0,1.27-.42,1.91-.64,1.06-1.06,1.7c-.42.42-1.06.85-1.48,1.06v-.42c.21,0,.64.42,1.06.85s.64.85.85,1.27c.21.42.42,1.06.42,1.48v2.12c0,.21.21.42.42.42s.42.42.64.85c0,.42,0,.64-.21.85,0,0-.42.42-.64.42h-1.27c-.21,0-.64-.42-.85-.64-.21-.21-.42-.85-.64-1.27,0-.64-.21-1.27-.21-2.12v-1.06c0-.21-.42-.64-.64-.85s-.42-.42-.85-.42h-6.36l.42-.64v6.15c0,.42,0,.64-.21.85s-.42.42-.85.42l-.21-.42ZM49.44,413.75h6.15c.42,0,.85,0,1.06-.42s.64-.64.85-1.27c.21-.42.42-1.06.42-1.7s-.21-1.48-.64-2.12-1.06-.85-1.7-.85h-5.94v-.64c.21,0,.21,7.42.21,7.42l-.42-.64v.21Z"/>
    <path class="cls-1" d="M66.2,405.05h8.7c.42,0,.64,0,.85.42.21.21.42.64.42.85s0,.64-.42.85c-.21.21-.64.42-.85.42h-7.64v-.42c.21,0,.21,5.73.21,5.73h-.21c0-.21,6.58-.21,6.58-.21.42,0,.64,0,.85.42s.42.64.42.85,0,.64-.42.85c-.21.21-.64.42-.85.42h-6.36c0-.21,0,5.73,0,5.73h7.64c.42,0,.64,0,.85.42.21.21.42.42.42.85s0,.64-.42.85c-.21.21-.64.42-.85.42h-8.7c-.42,0-.64,0-.85-.42-.21-.21-.42-.64-.42-.85v-15.27c0-.42,0-.64.42-.85.21-.21.64-.42.85-.42l-.21-.64Z"/>
    <path class="cls-1" d="M92.72,406.12c.42,0,.64.42.64.85s0,.85-.42,1.06c0,.21-.42.42-.64.42h-.85c-.42-.21-1.06-.42-1.48-.64-.64,0-1.06-.21-1.7-.21-1.06,0-1.91,0-2.55.42-.85.42-1.48.85-1.91,1.27-.64.64-1.06,1.27-1.27,2.12s-.42,1.7-.42,2.55,0,2.12.42,2.76c.42.85.85,1.48,1.27,2.12s1.27,1.06,1.91,1.27,1.7.42,2.55.42h1.7c.64,0,1.06-.42,1.48-.64h.85c.21,0,.64,0,.64.42.21.42.42.64.21,1.06,0,.42-.21.64-.64.85-.42.21-.85.42-1.48.64s-1.06.21-1.48.42-1.06,0-1.7,0c-1.27,0-2.33,0-3.39-.64s-2.12-1.06-2.97-1.7c-.85-.85-1.48-1.7-1.91-2.97-.42-1.06-.64-2.33-.64-3.82s.21-2.55.64-3.61c.42-1.06,1.06-2.12,1.91-2.97s1.7-1.48,2.97-1.91c1.06-.42,2.33-.64,3.61-.64s1.7,0,2.33.21,1.48.42,2.12.85h.21Z"/>
    <path class="cls-1" d="M107.78,405.05c.42,0,.64,0,.85.42s.42.64.42.85v.85l-5.73,8.27.42-1.48v7.85c0,.42,0,.64-.42.85s-.64.42-.85.42-.64,0-.85-.42-.42-.64-.42-.85v-7.64.64l-5.52-7.42-.21-.42v-.42c0-.42,0-.64.42-.85.21-.21.64-.42.85-.42s.85,0,1.06.64l5.09,7h-.64l4.88-7c.21-.42.64-.64,1.06-.64l-.42-.21Z"/>
    <path class="cls-1" d="M124.11,406.12c.42,0,.64.42.64.85s0,.85-.42,1.06c0,.21-.42.42-.64.42h-.85c-.42-.21-1.06-.42-1.48-.64-.64,0-1.06-.21-1.7-.21-1.06,0-1.91,0-2.55.42-.85.42-1.48.85-1.91,1.27-.64.64-1.06,1.27-1.27,2.12s-.42,1.7-.42,2.55,0,2.12.42,2.76c.42.85.85,1.48,1.27,2.12s1.27,1.06,1.91,1.27,1.7.42,2.55.42h1.7c.64,0,1.06-.42,1.48-.64h.85c.21,0,.64,0,.64.42.21.42.42.64.21,1.06,0,.42-.21.64-.64.85-.42.21-.85.42-1.48.64s-1.06.21-1.48.42-1.06,0-1.7,0c-1.27,0-2.33,0-3.39-.64s-2.12-1.06-2.97-1.7c-.85-.85-1.48-1.7-1.91-2.97-.42-1.06-.64-2.33-.64-3.82s.21-2.55.64-3.61,1.06-2.12,1.91-2.97,1.7-1.48,2.97-1.91c1.06-.42,2.33-.64,3.61-.64s1.7,0,2.33.21,1.48.42,2.12.85h.21Z"/>
    <path class="cls-1" d="M138.11,420.33c.42,0,.64,0,.85.42s.42.64.42.85,0,.64-.42.85-.64.42-.85.42h-8.48c-.42,0-.64,0-.85-.42-.21-.21-.42-.64-.42-.85v-15.27c0-.42,0-.64.42-.85.21-.21.64-.42,1.06-.42s.64,0,.85.42c.21.21.42.64.42.85v14.42l-.64-.42h7.64Z"/>
    <path class="cls-1" d="M144.05,405.05h8.7c.42,0,.64,0,.85.42.21.21.42.64.42.85s0,.64-.42.85c-.21.21-.64.42-.85.42h-7.64v-.42c.21,0,.21,5.73.21,5.73h-.21c0-.21,6.58-.21,6.58-.21.42,0,.64,0,.85.42s.42.64.42.85,0,.64-.42.85c-.21.21-.64.42-.85.42h-6.36c0-.21,0,5.73,0,5.73h7.64c.42,0,.64,0,.85.42.21.21.42.42.42.85s0,.64-.42.85c-.21.21-.64.42-.85.42h-8.7c-.42,0-.64,0-.85-.42-.21-.21-.42-.64-.42-.85v-15.27c0-.42,0-.64.42-.85.21-.21.64-.42.85-.42l-.21-.64Z"/>
    <path class="cls-1" d="M159.32,422.87c-.42,0-.85,0-1.06-.42-.21-.21-.42-.64-.42-.85v-15.27c0-.42,0-.64.42-.85.21-.21.64-.42.85-.42h7.21c.85,0,1.7.21,2.55.64.85.42,1.27,1.06,1.91,1.91.42.85.64,1.7.64,2.76s0,1.27-.42,1.91-.64,1.06-1.06,1.7c-.42.42-1.06.85-1.48,1.06v-.42c.21,0,.64.42,1.06.85.42.42.64.85.85,1.27.21.42.42,1.06.42,1.48v2.12c0,.21.21.42.42.42s.42.42.64.85c0,.42,0,.64-.21.85,0,0-.42.42-.64.42h-1.27c-.21,0-.64-.42-.85-.64s-.42-.85-.64-1.27c0-.64-.21-1.27-.21-2.12v-1.06c0-.21-.42-.64-.64-.85s-.42-.42-.85-.42h-6.36l.42-.64v6.15c0,.42,0,.64-.21.85s-.42.42-.85.42l-.21-.42ZM160.17,413.75h6.15c.42,0,.85,0,1.06-.42s.64-.64.85-1.27c.21-.42.42-1.06.42-1.7s-.21-1.48-.64-2.12-1.06-.85-1.7-.85h-5.94v-.64c.21,0,.21,7.42.21,7.42l-.42-.64v.21Z"/>
    <path class="cls-1" d="M193.05,420.33c.42,0,.64,0,.85.42s.42.64.42.85,0,.64-.42.85-.64.42-.85.42h-8.48c-.42,0-.64,0-.85-.42-.21-.21-.42-.64-.42-.85v-15.27c0-.42,0-.64.42-.85.21-.21.64-.42,1.06-.42s.64,0,.85.42c.21.21.42.64.42.85v14.42l-.64-.42h7.64Z"/>
    <path class="cls-1" d="M199.62,405.05h8.7c.42,0,.64,0,.85.42.21.21.42.64.42.85s0,.64-.42.85c-.21.21-.64.42-.85.42h-7.64v-.42c.21,0,.21,5.73.21,5.73h-.21c0-.21,6.58-.21,6.58-.21.42,0,.64,0,.85.42s.42.64.42.85,0,.64-.42.85c-.21.21-.64.42-.85.42h-6.36c0-.21,0,5.73,0,5.73h7.64c.42,0,.64,0,.85.42.21.21.42.42.42.85s0,.64-.42.85c-.21.21-.64.42-.85.42h-8.7c-.42,0-.64,0-.85-.42-.21-.21-.42-.64-.42-.85v-15.27c0-.42,0-.64.42-.85.21-.21.64-.42.85-.42l-.21-.64Z"/>
    <path class="cls-1" d="M226.56,423.08c-1.27,0-2.33,0-3.18-.42s-1.91-.85-2.76-1.7l-.42-.42v-.64c0-.42,0-.64.42-.85s.64-.42.85-.42.42,0,.85.21c.64.64,1.27,1.06,2.12,1.27.64.21,1.48.42,2.55.42s1.27,0,1.91-.42c.64-.21,1.06-.42,1.27-.85.42-.42.42-.85.42-1.27,0-.64,0-1.06-.64-1.48-.42-.42-.85-.64-1.48-1.06-.64-.21-1.48-.42-2.33-.64-.85,0-1.7-.42-2.33-.64-.64-.21-1.27-.64-1.7-1.06-.42-.42-.85-.85-1.06-1.48s-.42-1.27-.42-1.91.21-1.91.85-2.76c.64-.85,1.27-1.27,2.12-1.7s1.91-.64,3.18-.64,2.12,0,2.97.42,1.7.85,2.33,1.27c.42.42.64.64.64,1.06s0,.64-.42.85-.42.42-.85.42h-.64c-.21-.21-.64-.64-1.06-.85-.42-.21-.85-.42-1.48-.64-.42,0-1.06-.21-1.48-.21-.85,0-1.48,0-1.91.42-.64,0-1.06.42-1.27.85s-.42.85-.42,1.27,0,1.06.42,1.48.85.64,1.48.85c.64.21,1.27.42,2.12.64.85,0,1.7.42,2.55.64.64.21,1.27.64,1.91,1.06.42.42.85.85,1.27,1.48.21.64.42,1.27.42,2.12s-.21,1.91-.85,2.76c-.64.85-1.27,1.27-2.33,1.7-.85.42-1.91.64-3.18.64l-.42.21Z"/>
    <path class="cls-1" d="M243.32,408.45l-5.73,13.79c0,.21-.21.42-.42.64,0,0-.42.21-.64.21-.42,0-.64,0-.85-.21,0-.21-.21-.42-.21-.85v-.42l6.36-15.7c0-.21.21-.42.42-.64.21,0,.42-.21.85,0,.21,0,.42,0,.64.21s.42.42.42.64l6.36,15.48v.42c0,.42,0,.64-.42.85-.21.21-.42.42-.85.42s-.42,0-.64-.21c-.21,0-.42-.42-.42-.64l-5.73-13.58h.64l.21-.42ZM238.44,418.42l1.06-2.55h7.21l.42,2.55h-8.7Z"/>
    <path class="cls-1" d="M264.11,405.05c.42,0,.64,0,.85.42.21.21.42.64.42.85v.64l-6.36,15.27c0,.21-.42.42-.64.64h-.64c-.21,0-.42,0-.64-.21-.21,0-.42-.42-.42-.64l-6.36-15.27v-.42c0-.42,0-.64.42-.85.21-.21.64-.42.85-.42.64,0,.85.21,1.27.85l5.73,13.79h-.64l5.52-13.79c.21-.64.64-.85,1.27-.85h-.64Z"/>
    <path class="cls-1" d="M285.1,413.96c0,1.27,0,2.55-.64,3.61-.42,1.06-1.06,2.12-1.7,2.97-.85.85-1.7,1.48-2.76,1.91s-2.12.64-3.39.64-2.33-.21-3.39-.64-1.91-1.06-2.76-1.91-1.27-1.7-1.7-2.97c-.42-1.06-.64-2.33-.64-3.61s0-2.55.64-3.61c.42-1.06,1.06-2.12,1.7-2.97.85-.85,1.7-1.48,2.76-1.91s2.12-.64,3.39-.64,2.33.21,3.39.64,1.91,1.06,2.76,1.91,1.27,1.91,1.7,2.97c.42,1.06.64,2.33.64,3.61ZM282.35,413.96c0-1.27-.21-2.33-.85-3.39-.42-1.06-1.27-1.7-2.12-2.33s-1.91-.85-2.97-.85-2.12.21-2.97.85c-.85.64-1.48,1.27-2.12,2.33-.42,1.06-.64,2.12-.64,3.39s.21,2.33.64,3.39c.42,1.06,1.27,1.7,2.12,2.33s1.91.85,2.97.85,2.12-.21,2.97-.85c.85-.64,1.48-1.27,2.12-2.33.42-1.06.85-2.12.85-3.39Z"/>
    <path class="cls-1" d="M301.65,405.05c.42,0,.64,0,.85.42,0,.21.21.42.21.85v15.27c0,.42,0,.64-.42.85s-.64.42-.85.42h-.64s-.42,0-.42-.21l-10.39-13.58.64-.42v13.15c0,.42,0,.64-.42.85-.21.21-.42.42-.85.42s-.64,0-.85-.42c-.21-.21-.42-.42-.42-.85v-15.27c0-.42,0-.64.42-.85.21-.21.64-.42.85-.42h.64s.42,0,.42.42l10.18,13.36-.42.42v-12.94c0-.42,0-.64.42-.85,0-.21.42-.42.85-.42l.21-.21Z"/>
    <path class="cls-1" d="M322.86,405.05c1.27,0,2.33.21,3.18.64s1.7,1.06,2.33,1.91,1.06,1.7,1.48,2.76.42,2.12.42,3.39-.21,3.18-.85,4.45c-.64,1.27-1.48,2.33-2.55,3.18s-2.55,1.27-4.24,1.27h-6.15c-.42,0-.64,0-.85-.42-.21-.21-.42-.64-.42-.85v-15.27c0-.42,0-.64.42-.85.21-.21.64-.42.85-.42h6.15l.21.21ZM322.44,420.54c1.27,0,2.12-.21,2.97-.85.85-.64,1.27-1.27,1.7-2.33s.42-2.12.42-3.18,0-1.7-.21-2.55c0-.85-.42-1.48-.85-2.12s-.85-1.06-1.48-1.48-1.48-.42-2.33-.42h-4.88.21v13.15h0c0-.21,4.67-.21,4.67-.21h-.21Z"/>
    <path class="cls-1" d="M335.38,405.05h8.7c.42,0,.64,0,.85.42.21.21.42.64.42.85s0,.64-.42.85c-.21.21-.64.42-.85.42h-7.64v-.42c.21,0,.21,5.73.21,5.73h-.21c0-.21,6.58-.21,6.58-.21.42,0,.64,0,.85.42s.42.64.42.85,0,.64-.42.85c-.21.21-.64.42-.85.42h-6.36c0-.21,0,5.73,0,5.73h7.64c.42,0,.64,0,.85.42.21.21.42.42.42.85s0,.64-.42.85c-.21.21-.64.42-.85.42h-8.7c-.42,0-.64,0-.85-.42-.21-.21-.42-.64-.42-.85v-15.27c0-.42,0-.64.42-.85.21-.21.64-.42.85-.42l-.21-.64Z"/>
    <path class="cls-1" d="M354.68,423.08c-1.27,0-2.33,0-3.18-.42s-1.91-.85-2.76-1.7l-.42-.42v-.64c0-.42,0-.64.42-.85s.64-.42.85-.42.42,0,.85.21c.64.64,1.27,1.06,2.12,1.27.64.21,1.48.42,2.55.42s1.27,0,1.91-.42c.64-.21,1.06-.42,1.27-.85.42-.42.42-.85.42-1.27,0-.64,0-1.06-.64-1.48-.42-.42-.85-.64-1.48-1.06-.64-.21-1.48-.42-2.33-.64-.85,0-1.7-.42-2.33-.64s-1.27-.64-1.7-1.06-.85-.85-1.06-1.48-.42-1.27-.42-1.91.21-1.91.85-2.76c.64-.85,1.27-1.27,2.12-1.7s1.91-.64,3.18-.64,2.12,0,2.97.42,1.7.85,2.33,1.27c.42.42.64.64.64,1.06s0,.64-.42.85-.42.42-.85.42h-.64c-.21-.21-.64-.64-1.06-.85-.42-.21-.85-.42-1.48-.64-.42,0-1.06-.21-1.48-.21-.85,0-1.48,0-1.91.42-.64,0-1.06.42-1.27.85s-.42.85-.42,1.27,0,1.06.42,1.48.85.64,1.48.85c.64.21,1.27.42,2.12.64.85,0,1.7.42,2.55.64.64.21,1.27.64,1.91,1.06.42.42.85.85,1.27,1.48.21.64.42,1.27.42,2.12s-.21,1.91-.85,2.76c-.64.85-1.27,1.27-2.33,1.7-.85.42-1.91.64-3.18.64l-.42.21Z"/>
    <path class="cls-1" d="M373.56,405.05c.42,0,.64,0,.85.42.21.21.42.64.42.85v15.27c0,.42,0,.64-.42.85s-.64.42-.85.42-.64,0-1.06-.42c-.21-.21-.42-.64-.42-.85v-15.27c0-.42,0-.64.42-.85.21-.21.64-.42,1.06-.42ZM373.56,412.69h11.67v2.55h-11.67v-2.55ZM385.22,405.05c.42,0,.64,0,1.06.42.21.21.42.64.42.85v15.27c0,.42,0,.64-.42.85-.21.21-.64.42-1.06.42s-.64,0-.85-.42-.42-.64-.42-.85v-15.27c0-.42,0-.64.42-.85.21-.21.64-.42.85-.42Z"/>
    <path class="cls-1" d="M407.28,413.96c0,1.27,0,2.55-.64,3.61-.42,1.06-1.06,2.12-1.7,2.97-.85.85-1.7,1.48-2.76,1.91s-2.12.64-3.39.64-2.33-.21-3.39-.64-1.91-1.06-2.76-1.91c-.85-.85-1.27-1.7-1.7-2.97-.42-1.06-.64-2.33-.64-3.61s0-2.55.64-3.61c.42-1.06,1.06-2.12,1.7-2.97.85-.85,1.7-1.48,2.76-1.91s2.12-.64,3.39-.64,2.33.21,3.39.64,1.91,1.06,2.76,1.91c.85.85,1.27,1.91,1.7,2.97s.64,2.33.64,3.61ZM404.53,413.96c0-1.27-.21-2.33-.85-3.39-.42-1.06-1.27-1.7-2.12-2.33s-1.91-.85-2.97-.85-2.12.21-2.97.85c-.85.64-1.48,1.27-2.12,2.33-.42,1.06-.64,2.12-.64,3.39s.21,2.33.64,3.39,1.27,1.7,2.12,2.33,1.91.85,2.97.85,2.12-.21,2.97-.85c.85-.64,1.48-1.27,2.12-2.33.42-1.06.85-2.12.85-3.39ZM399.01,401.87l-2.12,1.48c-.21,0-.42.21-.64.42h-.85v-.64c0-.21,0,0,.21-.42l1.7-1.91s.42-.42.64-.42h1.7s.42.21.64.42l1.7,1.91s.21.21.21.42v.64h-.85s-.42,0-.64-.42l-2.12-1.48h.85-.42Z"/>
    <path class="cls-1" d="M410.89,407.6c-.42,0-.64,0-.85-.42-.21-.21-.42-.42-.42-.85s0-.64.42-.85c.21-.21.64-.42.85-.42h11.45c.42,0,.64,0,.85.42.21.21.42.42.42.85s0,.64-.42.85c-.21.21-.64.42-.85.42h-11.45ZM416.83,422.87c-.42,0-.64,0-1.06-.42s-.42-.64-.42-.85v-15.27h2.76v15.27c0,.42,0,.64-.42.85s-.64.42-1.06.42h.21Z"/>
    <path class="cls-1" d="M429.13,405.05h8.7c.42,0,.64,0,.85.42.21.21.42.64.42.85s0,.64-.42.85c-.21.21-.64.42-.85.42h-7.64v-.42c.21,0,.21,5.73.21,5.73h-.21c0-.21,6.58-.21,6.58-.21.42,0,.64,0,.85.42s.42.64.42.85,0,.64-.42.85c-.21.21-.64.42-.85.42h-6.36c0-.21,0,5.73,0,5.73h7.64c.42,0,.64,0,.85.42.21.21.42.42.42.85s0,.64-.42.85c-.21.21-.64.42-.85.42h-8.7c-.42,0-.64,0-.85-.42-.21-.21-.42-.64-.42-.85v-15.27c0-.42,0-.64.42-.85.21-.21.64-.42.85-.42l-.21-.64Z"/>
    <path class="cls-1" d="M452.46,420.33c.42,0,.64,0,.85.42s.42.64.42.85,0,.64-.42.85-.64.42-.85.42h-8.48c-.42,0-.64,0-.85-.42-.21-.21-.42-.64-.42-.85v-15.27c0-.42,0-.64.42-.85.21-.21.64-.42,1.06-.42s.64,0,.85.42c.21.21.42.64.42.85v14.42l-.64-.42h7.64Z"/>
    <path class="cls-1" d="M462.86,423.08c-1.27,0-2.33,0-3.18-.42s-1.91-.85-2.76-1.7l-.42-.42v-.64c0-.42,0-.64.42-.85s.64-.42.85-.42.42,0,.85.21c.64.64,1.27,1.06,2.12,1.27.64.21,1.48.42,2.55.42s1.27,0,1.91-.42c.64-.21,1.06-.42,1.27-.85.42-.42.42-.85.42-1.27,0-.64,0-1.06-.64-1.48-.42-.42-.85-.64-1.48-1.06-.64-.21-1.48-.42-2.33-.64-.85,0-1.7-.42-2.33-.64s-1.27-.64-1.7-1.06-.85-.85-1.06-1.48-.42-1.27-.42-1.91.21-1.91.85-2.76c.64-.85,1.27-1.27,2.12-1.7s1.91-.64,3.18-.64,2.12,0,2.97.42,1.7.85,2.33,1.27c.42.42.64.64.64,1.06s0,.64-.42.85-.42.42-.85.42h-.64c-.21-.21-.64-.64-1.06-.85-.42-.21-.85-.42-1.48-.64-.42,0-1.06-.21-1.48-.21-.85,0-1.48,0-1.91.42-.64,0-1.06.42-1.27.85s-.42.85-.42,1.27,0,1.06.42,1.48.85.64,1.48.85c.64.21,1.27.42,2.12.64.85,0,1.7.42,2.55.64.64.21,1.27.64,1.91,1.06.42.42.85.85,1.27,1.48.21.64.42,1.27.42,2.12s-.21,1.91-.85,2.76c-.64.85-1.27,1.27-2.33,1.7-.85.42-1.91.64-3.18.64l-.42.21Z"/>
  </g>
  <g>
    <path class="cls-1" d="M95.26,309.6c1.48,0,2.76.42,3.61,1.48.85,1.06,1.48,2.33,1.48,3.82v39.45c0,5.52-1.27,10.61-3.61,14.85-2.33,4.45-5.73,7.85-9.97,10.18-4.24,2.55-9.12,3.61-14.64,3.61s-10.39-1.27-14.64-3.61c-4.24-2.55-7.64-5.94-10.18-10.18-2.55-4.45-3.61-9.33-3.61-14.85v-39.45c0-1.48.42-2.76,1.48-3.82s2.33-1.48,4.03-1.48,2.55.42,3.61,1.48,1.7,2.33,1.7,3.82v39.45c0,3.61.85,6.79,2.55,9.55s3.82,4.88,6.58,6.36c2.76,1.48,5.52,2.33,8.7,2.33s6.36-.85,9.12-2.33c2.76-1.48,5.09-3.82,6.79-6.36,1.7-2.76,2.55-5.94,2.55-9.55v-39.45c0-1.48.42-2.76,1.27-3.82s2.12-1.48,3.61-1.48h-.42Z"/>
    <path class="cls-1" d="M171.83,309.81c1.48,0,2.55.42,3.39,1.48.85.85,1.27,2.12,1.27,3.39v62.79c0,1.48-.42,2.76-1.48,3.82s-2.33,1.48-3.82,1.48-1.48,0-2.33-.42c-.85-.21-1.27-.64-1.7-1.06l-42.85-55.36,2.33-1.48v53.67c0,1.27-.42,2.55-1.27,3.39-.85.85-2.12,1.48-3.39,1.48s-2.55-.42-3.39-1.48c-.85-.85-1.27-2.12-1.27-3.39v-62.79c0-1.48.42-2.76,1.48-3.82s2.33-1.48,3.82-1.48,1.48,0,2.55.42c.85.21,1.48.85,1.91,1.48l41.79,54.3-1.48,1.48v-52.82c0-1.48.42-2.55,1.27-3.39s2.12-1.48,3.39-1.48l-.21-.21Z"/>
    <path class="cls-1" d="M204.5,377.27c0,1.48-.64,2.76-1.7,3.82s-2.33,1.48-3.82,1.48-2.97-.42-4.03-1.48-1.48-2.33-1.48-3.82v-62.36c0-1.48.42-2.76,1.48-3.82s2.33-1.48,4.03-1.48,2.55.42,3.61,1.48,1.7,2.33,1.7,3.82v62.36h.21Z"/>
    <path class="cls-1" d="M243.74,383.63c-5.09,0-9.55-.64-13.36-2.12-3.82-1.27-7.64-3.61-11.24-6.79-.85-.64-1.27-1.27-1.7-2.12s-.64-1.7-.64-2.55c0-1.27.42-2.55,1.48-3.61s2.12-1.48,3.61-1.48,2.12.42,3.18,1.06c2.55,2.33,5.3,4.24,8.27,5.52s6.36,1.91,10.18,1.91,5.3-.42,7.64-1.27c2.33-.85,4.24-2.12,5.52-3.61,1.48-1.48,2.12-3.39,2.12-5.3,0-2.55-.85-4.45-2.12-6.15-1.48-1.7-3.39-2.97-6.15-4.03s-5.94-1.91-9.55-2.76c-3.39-.64-6.58-1.7-9.33-2.76s-5.09-2.55-7-4.24-3.39-3.82-4.45-6.15c-1.06-2.33-1.48-5.09-1.48-8.06s1.06-7.85,3.39-11.03c2.12-3.18,5.3-5.52,9.12-7.21,3.82-1.7,8.06-2.55,12.94-2.55s8.48.64,12.3,2.12c3.82,1.27,7,3.18,9.33,5.52,1.7,1.48,2.55,2.97,2.55,4.67s-.42,2.55-1.48,3.61-2.12,1.48-3.39,1.48-1.91-.21-2.55-.85c-1.06-1.27-2.55-2.33-4.45-3.18-1.91-.85-3.82-1.7-5.94-2.33s-4.24-.85-6.15-.85c-3.18,0-5.73.42-8.06,1.27-2.12.85-4.03,2.12-5.09,3.61-1.27,1.48-1.7,3.18-1.7,5.3s.64,4.24,2.12,5.73c1.27,1.48,3.18,2.76,5.73,3.61,2.33.85,5.3,1.7,8.27,2.55,3.82.85,7.21,1.7,10.18,2.76s5.52,2.33,7.64,4.03c2.12,1.7,3.61,3.61,4.88,6.15,1.06,2.33,1.7,5.52,1.7,9.12s-1.27,7.85-3.61,11.03-5.52,5.52-9.33,7.21c-3.82,1.7-8.06,2.55-12.94,2.55l-.42.21Z"/>
    <path class="cls-1" d="M348.74,346.09c0,5.3-.85,10.18-2.55,14.64s-4.24,8.48-7.42,11.88-6.79,6.15-11.24,8.06c-4.24,1.91-9.12,2.97-14.21,2.97s-9.76-1.06-14.21-2.97c-4.24-1.91-8.06-4.67-11.24-8.06s-5.52-7.42-7.42-11.88c-1.7-4.45-2.55-9.55-2.55-14.64s.85-10.18,2.55-14.64c1.7-4.45,4.24-8.48,7.42-11.88s6.79-6.15,11.24-8.06c4.24-1.91,8.91-2.97,14.21-2.97s9.76,1.06,14.21,2.97c4.24,1.91,8.06,4.67,11.24,8.06,3.18,3.39,5.52,7.42,7.42,11.88,1.7,4.45,2.55,9.55,2.55,14.64ZM337.5,346.09c0-5.09-1.06-9.76-3.18-13.79-2.12-4.03-4.88-7.42-8.48-9.76-3.61-2.33-7.64-3.61-12.51-3.61s-8.7,1.27-12.3,3.61c-3.61,2.33-6.36,5.52-8.48,9.55s-2.97,8.7-2.97,14,1.06,9.76,2.97,13.79,4.88,7.42,8.48,9.76c3.61,2.33,7.85,3.61,12.3,3.61s8.91-1.27,12.51-3.61c3.61-2.33,6.36-5.52,8.48-9.76,2.12-4.03,3.18-8.7,3.18-13.79Z"/>
    <path class="cls-1" d="M387.13,323.39l-23.33,56.21c-.42,1.06-1.06,1.91-1.91,2.55s-1.7.85-2.76.85c-1.7,0-2.76-.42-3.61-1.27-.85-.85-1.06-1.91-1.06-3.18s0-1.06.21-1.7l26.51-64.06c.42-1.27,1.06-2.12,2.12-2.76.85-.64,1.91-.85,2.97-.85s2.12.21,2.97.85,1.48,1.48,1.91,2.55l26.09,63c.21.64.42,1.48.42,2.12,0,1.48-.42,2.76-1.48,3.61s-2.12,1.48-3.39,1.48-1.91-.42-2.97-1.06c-.85-.64-1.48-1.48-1.91-2.55l-23.54-56h2.76v.21ZM367.83,364.75l4.67-9.97h29.48l1.7,9.97h-35.85Z"/>
    <path class="cls-1" d="M457.34,309.81c3.61,0,7,1.06,10.18,2.97s5.73,4.67,7.42,8.06c1.91,3.39,2.76,7.21,2.76,11.67s-.85,8.06-2.76,11.45c-1.91,3.39-4.45,6.15-7.42,8.27-3.18,2.12-6.58,2.97-10.18,2.97h-20.15l.85-1.48v23.76c0,1.48-.42,2.76-1.48,3.82-.85,1.06-2.12,1.48-3.61,1.48s-2.76-.42-3.61-1.48-1.48-2.33-1.48-3.82v-62.36c0-1.48.42-2.76,1.48-3.82s2.33-1.48,3.82-1.48h24.18ZM457.34,345.03c1.91,0,3.39-.64,4.88-1.7,1.48-1.27,2.76-2.76,3.61-4.67s1.48-4.03,1.48-6.15-.42-4.45-1.48-6.36c-.85-1.91-2.12-3.39-3.61-4.45s-3.18-1.7-4.88-1.7h-20.36l1.06-1.48v28.21l-.85-1.27h20.15v-.42Z"/>
  </g>
  <g>
    <path class="cls-1" d="M165.05,153.7c1.91,12.3,6.36,23.54,13.36,33.94,20.36,29.48,48.57,50.91,76.79,71.91,3.82,2.76,8.27,2.55,12.09-.42,23.12-17.61,46.67-35,65.33-57.48,15.91-19.3,26.73-39.88,24.61-66.18-2.12-23.54-19.73-46.67-42.85-52.18-18.03-4.45-34.36-1.06-49.21,10.39-2.55,1.91-4.45,4.45-8.48.85-26.73-23.76-70.63-14.64-87.18,19.94M258.17,124c.85-1.48,2.12-4.03,3.82-1.06,9.33,15.7,20.79,30.76,22.7,50.27h0c.85,7.85-4.45,15.7-13.36,19.94-9.76,4.67-19.09,3.61-26.94-3.61-6.58-5.73-9.97-13.36-7.42-22.7,4.24-15.7,13.15-29.06,21.21-43.06v.21ZM326.47,187.42c-17.18,21.85-38.61,39.24-60.88,55.57-3.18,2.33-5.73,2.97-8.91.64-26.09-20.58-52.6-40.73-70.42-69.57-12.94-21-12.09-51.76,7.21-68.73,14.85-12.94,39.24-14,54.3-1.48,4.03,3.39,2.97,6.15.64,9.76-8.27,13.15-15.7,26.94-22.06,41.15-12.94,28.85,9.33,53.24,31.18,54.73,25.24,1.48,46.67-23.33,39.03-47.3-5.73-17.61-15.06-33.51-24.82-49-2.55-4.24-1.7-6.36,1.48-8.7,8.06-5.94,16.55-10.18,25.88-9.33h0c22.06,0,39.67,15.48,44.12,36.7,4.67,21.85-4.03,39.45-16.76,55.79v-.21Z"/>
    <path class="cls-1" d="M351.5,114.24c-16.55-34.57-60.45-43.7-87.18-19.94-3.82,3.39-5.94.85-8.48-.85-14.64-11.45-31.18-14.85-49.21-10.39-23.12,5.73-40.73,28.64-42.85,52.18-2.33,26.3,8.48,46.88,24.61,66.18,18.88,22.7,42.21,39.88,65.33,57.48,3.82,2.97,8.48,3.18,12.09.42,28.42-21,56.42-42.42,76.79-71.91,7-10.18,11.67-21.42,13.36-33.94M284.47,167.06c2.55,9.12-.85,16.76-7.42,22.7-7.85,7-17.18,8.27-26.94,3.61-8.7-4.24-14-11.88-13.36-19.94h0c1.91-19.73,13.36-34.57,22.7-50.27,1.7-2.97,2.97-.42,3.82,1.06,8.06,13.79,16.97,27.36,21.21,43.06v-.21ZM177.99,131.64c4.45-21.21,22.06-36.7,44.12-36.7h0c9.33-.85,17.82,3.39,25.88,9.33,3.39,2.55,4.24,4.67,1.48,8.7-9.76,15.7-19.09,31.39-24.82,49-7.64,23.97,13.79,48.79,39.03,47.3,21.85-1.48,44.33-25.88,31.18-54.73-6.36-14.21-13.79-27.79-22.06-41.15-2.33-3.61-3.39-6.36.64-9.76,15.06-12.51,39.67-11.24,54.3,1.48,19.51,16.97,20.15,47.73,7.21,68.73-17.82,28.85-44.12,49.21-70.42,69.57-3.18,2.55-5.73,1.7-8.91-.64-22.27-16.33-43.7-33.73-60.88-55.57-12.73-16.33-21.42-33.94-16.76-55.79v.21Z"/>
    <path class="cls-1" d="M263.68,188.91c-10.61,0-19.94-9.76-20.15-19.73,0-4.03,1.27-7,5.52-7.85s7.21,1.48,7.64,5.52c.64,5.94,4.03,8.27,9.33,9.33,4.03.85,6.58,3.39,5.73,7.42-.85,4.67-4.45,5.73-8.06,5.3Z"/>
  </g>
</svg>