<?xml version="1.0" encoding="UTF-8"?>
<svg id="Calque_1" data-name="Calque 1" xmlns="http://www.w3.org/2000/svg" viewBox="0 0 512 512">
  <defs>
    <style>
      .cls-1 {
        fill: #1e8dcd;
      }

      .cls-2 {
        fill: #1364a3;
      }
    </style>
  </defs>
  <path class="cls-2" d="M325.43,133.48c0-3.8-3.09-6.89-6.89-6.89s-6.89,3.09-6.89,6.89,3.09,6.89,6.89,6.89,6.89-3.09,6.89-6.89Z"/>
  <path class="cls-2" d="M193.23,276.04h0c.11.06.22.12.33.19,1.13.63,2.27,1.25,3.42,1.86.14.07.28.15.41.22.59.31,1.18.61,1.77.9.2.1.41.2.61.3,1.87.93,3.75,1.81,5.67,2.65.19.08.38.17.58.25,1.96.85,3.95,1.66,5.96,2.43.14.05.27.1.41.16,2.1.79,4.23,1.54,6.38,2.23.05.02.11.03.16.05,2.95.95,5.95,1.8,8.98,2.55.03,0,.05.01.08.02,0,0,0,0,0,0,10.69,2.64,21.87,4.05,33.37,4.05,37.85,0,72.15-15.15,97.19-39.72,0,0,0,0,0,0,.01-.01.02-.02.04-.04.78-.76,1.54-1.53,2.3-2.32.02-.02.04-.04.06-.06.77-.79,1.52-1.59,2.27-2.4.01-.01.03-.03.04-.04.75-.81,1.5-1.64,2.23-2.47,0-.01.02-.02.03-.03.74-.84,1.46-1.68,2.18-2.53,0,0,.01-.01.02-.02.72-.85,1.42-1.72,2.12-2.59,0,0,.01-.02.02-.03.69-.87,1.38-1.75,2.05-2.63,0-.01.02-.02.02-.03.67-.88,1.33-1.77,1.98-2.67.01-.01.02-.03.03-.04.65-.89,1.28-1.8,1.9-2.7.02-.02.03-.04.05-.07.62-.9,1.23-1.81,1.82-2.73.02-.03.04-.06.06-.09.59-.91,1.17-1.82,1.74-2.74.03-.04.05-.08.08-.13.56-.91,1.11-1.83,1.65-2.75.03-.06.07-.11.1-.17.53-.91,1.05-1.82,1.56-2.75.04-.07.08-.14.12-.22.5-.91.99-1.82,1.47-2.74.05-.09.09-.18.14-.26.47-.9.93-1.82,1.38-2.73.05-.11.11-.21.16-.32.44-.9.86-1.8,1.28-2.71.06-.13.12-.25.18-.38.41-.89.8-1.79,1.19-2.69.06-.15.13-.29.19-.44.38-.88.74-1.77,1.1-2.67.07-.17.14-.34.21-.5.35-.87.68-1.75,1.01-2.63.07-.19.15-.38.22-.58.32-.86.62-1.72.93-2.59.08-.22.16-.44.23-.66.29-.85.57-1.7.84-2.55.08-.24.16-.48.24-.73.26-.83.51-1.67.76-2.51.08-.27.16-.54.24-.8.23-.82.46-1.64.67-2.46.08-.3.16-.59.24-.89.21-.8.4-1.61.6-2.42.08-.32.16-.64.23-.96.18-.79.35-1.58.52-2.38.07-.34.15-.68.22-1.03.16-.78.31-1.56.45-2.34.07-.36.14-.73.21-1.09.14-.76.26-1.53.39-2.3.06-.39.13-.77.19-1.16.12-.75.22-1.51.32-2.27.06-.41.12-.81.17-1.22.1-.74.18-1.49.26-2.24.05-.43.1-.85.15-1.28.08-.74.14-1.49.2-2.24.04-.43.08-.87.12-1.3.06-.75.1-1.51.15-2.27.03-.43.06-.86.08-1.29.04-.82.07-1.65.1-2.48.01-.37.03-.74.04-1.11.03-1.2.05-2.4.05-3.61,0-1.11-.02-2.21-.04-3.32,0-.36-.02-.71-.03-1.06-.02-.75-.05-1.51-.09-2.26-.02-.41-.04-.81-.06-1.22-.04-.71-.08-1.41-.13-2.12-.03-.41-.06-.81-.09-1.22-.06-.74-.13-1.48-.2-2.21-.03-.35-.06-.7-.1-1.06-.11-1.04-.23-2.08-.36-3.12,0-.04,0-.07-.01-.11-.14-1.07-.29-2.13-.45-3.19-.05-.35-.11-.7-.17-1.06-.11-.71-.23-1.43-.35-2.14-.07-.41-.15-.81-.22-1.21-.12-.66-.25-1.33-.38-1.99-.08-.41-.16-.81-.25-1.22-.14-.68-.29-1.36-.45-2.04-.08-.36-.16-.73-.25-1.09-.21-.92-.44-1.83-.67-2.74-.04-.16-.08-.33-.12-.49-.25-.96-.51-1.92-.78-2.87-.1-.37-.21-.74-.32-1.11-.19-.64-.38-1.29-.57-1.93-.13-.42-.26-.83-.39-1.25-.19-.59-.38-1.19-.58-1.78-.14-.42-.28-.84-.42-1.26-.21-.6-.42-1.2-.63-1.8-.14-.39-.28-.79-.42-1.18-.27-.74-.56-1.48-.84-2.21-.15-.4-.31-.79-.47-1.18-.31-.77-.62-1.54-.94-2.31-.17-.41-.35-.81-.52-1.22-.24-.55-.47-1.09-.72-1.63-.2-.44-.4-.88-.6-1.31-.23-.51-.47-1.01-.71-1.51-.21-.44-.42-.89-.64-1.33-.24-.5-.49-.99-.74-1.48-.22-.44-.44-.87-.66-1.3-.28-.54-.56-1.07-.85-1.61-.37-.69-.74-1.37-1.11-2.05-.29-.53-.58-1.06-.88-1.58-.26-.46-.53-.91-.79-1.36-.25-.43-.5-.86-.76-1.28-.28-.47-.57-.93-.85-1.4-.25-.4-.5-.8-.75-1.2-.3-.47-.6-.94-.9-1.41-.25-.38-.5-.76-.75-1.13-.32-.48-.63-.96-.95-1.43-.22-.33-.45-.65-.68-.98-.7-1.01-1.41-2.01-2.13-2.99-.18-.24-.36-.49-.54-.74-.37-.5-.75-1-1.13-1.5-.23-.3-.47-.61-.7-.91-.38-.49-.77-.98-1.16-1.46-.24-.3-.47-.59-.71-.89-.4-.49-.8-.98-1.21-1.47-.22-.27-.45-.53-.67-.79-.43-.51-.87-1.02-1.31-1.53-.12-.14-.24-.27-.36-.41-1.6-1.82-3.25-3.6-4.95-5.34-.18-.19-.37-.38-.55-.57-.49-.5-.99-1-1.5-1.49-.2-.2-.41-.4-.61-.6-.51-.5-1.02-.99-1.54-1.48-.18-.17-.35-.33-.53-.49-1.25-1.17-2.53-2.31-3.83-3.43-1.3-1.12-2.61-2.22-3.95-3.29-.12-.1-.24-.19-.36-.29-.61-.48-1.22-.96-1.84-1.44-.16-.12-.32-.25-.48-.37-.62-.47-1.25-.94-1.88-1.41-.12-.09-.25-.18-.37-.27-1.62-1.18-3.26-2.32-4.93-3.44-1.3-.87-2.61-1.72-3.94-2.54-.06-.03-.11-.07-.17-.1-.71-.44-1.43-.87-2.16-1.3-.12-.07-.24-.14-.36-.21-.72-.42-1.45-.84-2.18-1.25-.08-.04-.16-.09-.23-.13-1.99-1.12-4.02-2.19-6.08-3.21-1.23-.61-2.47-1.22-3.72-1.79-.01,0-.02-.01-.03-.01-.8-.37-1.6-.73-2.4-1.08-.1-.04-.2-.09-.3-.13-.8-.35-1.59-.69-2.4-1.02-.06-.02-.12-.05-.18-.07-3.44-1.41-6.94-2.69-10.51-3.83,0,0,0,0-.01,0-.85-.27-1.7-.53-2.55-.79-.1-.03-.21-.06-.31-.09-.84-.25-1.68-.49-2.53-.72-.02,0-.05-.01-.07-.02,0,0,0,0,0,0-11.72-3.21-24.05-4.94-36.79-4.94-20.3,0-39.57,4.36-56.95,12.19,0,0,0,0,0,0-.01,0-.02.01-.04.02-.19.09-.38.18-.57.26-.71.33-1.42.66-2.13.99-.29.14-.57.27-.86.41-.83.4-1.66.81-2.48,1.23-.22.11-.44.23-.66.34-.66.34-1.31.69-1.96,1.04-.29.16-.58.31-.87.47-.8.44-1.59.88-2.37,1.33-.25.14-.49.29-.73.43-.61.35-1.21.71-1.81,1.07-.29.18-.59.35-.88.53-.76.46-1.52.94-2.27,1.41-.26.17-.53.34-.79.51-.56.36-1.12.73-1.68,1.1-.29.2-.59.39-.88.59-.73.49-1.45.99-2.16,1.5-.28.2-.55.4-.83.6-.52.37-1.03.75-1.55,1.13-.3.22-.59.44-.89.66-.69.52-1.37,1.04-2.05,1.57-.29.23-.58.46-.87.69-.48.38-.95.76-1.42,1.15-.3.24-.59.48-.89.73-.65.54-1.3,1.09-1.94,1.64-.3.26-.6.52-.89.78-.44.38-.87.77-1.3,1.15-.3.27-.59.53-.89.8-.61.56-1.22,1.13-1.83,1.7-.3.29-.61.58-.91.87-.4.38-.79.77-1.18,1.15-.3.29-.59.58-.89.88-.58.58-1.15,1.16-1.71,1.75-.31.32-.61.64-.92.97-.36.38-.71.76-1.07,1.15-.29.32-.59.64-.88.96-.54.59-1.07,1.19-1.59,1.8-.31.35-.61.71-.92,1.06-.32.37-.64.75-.95,1.13-.4.48-.8.96-1.2,1.45-.39.48-.78.96-1.16,1.44-.3.38-.61.77-.91,1.16-.29.37-.57.74-.85,1.11-.44.58-.88,1.17-1.31,1.76-.31.42-.61.84-.92,1.26-.3.42-.59.83-.89,1.25-.25.36-.5.71-.74,1.07-.46.67-.92,1.35-1.37,2.03-.25.37-.49.74-.73,1.11-.29.45-.58.9-.86,1.35-.21.34-.43.68-.64,1.02-.47.75-.93,1.51-1.38,2.27-.2.34-.4.67-.6,1.01-.28.48-.55.96-.83,1.44-.18.32-.36.65-.54.97-.46.82-.91,1.65-1.35,2.48-.16.31-.33.62-.49.93-.26.51-.53,1.02-.78,1.53-.15.3-.3.6-.45.9-.44.89-.87,1.78-1.29,2.68-.14.29-.28.59-.41.88-.25.54-.49,1.07-.73,1.61-.12.27-.24.55-.36.82-.42.95-.82,1.91-1.22,2.88-.11.28-.23.55-.34.83-.23.56-.45,1.13-.67,1.7-.09.24-.18.48-.27.72-.39,1.02-.77,2.05-1.13,3.09-.09.27-.19.53-.28.8-.2.59-.41,1.18-.6,1.77-.06.19-.13.39-.19.58-.36,1.1-.7,2.2-1.04,3.31-.08.26-.15.51-.23.77-.18.61-.36,1.23-.53,1.84-.04.13-.07.27-.11.4-.33,1.19-.63,2.38-.93,3.57-.06.25-.12.5-.18.76-.15.63-.3,1.27-.45,1.91,0,.04-.02.08-.03.13-.29,1.3-.56,2.61-.82,3.92-.05.25-.1.5-.14.75-.38,2.01-.71,4.03-1,6.07-.04.25-.07.5-.11.75-.09.65-.18,1.3-.26,1.95h0c-.68,5.58-1.04,11.25-1.04,17,0,51.89,28.48,97.12,70.66,120.93ZM302.93,133.48c0-8.61,7-15.61,15.61-15.61s15.61,7,15.61,15.61-7.01,15.61-15.61,15.61-15.61-7-15.61-15.61ZM309.26,184.07l48.55-66.5h11.3l-2.6,3.56-33.64,46.09-12.3,16.86h-11.31ZM343.62,168.43c0-8.61,7-15.61,15.61-15.61s15.61,7,15.61,15.61-7,15.61-15.61,15.61c-.46,0-.91-.02-1.36-.06-2.5-.22-4.84-1.03-6.87-2.29-4.43-2.76-7.38-7.67-7.38-13.26ZM241.31,44.81h48.05v218.31h-54.17V95.44l-20.18-.19.05-7.8.12-19.35,16.08-14.33,10.06-8.96Z"/>
  <path class="cls-2" d="M366.13,168.43c0-3.8-3.09-6.89-6.89-6.89s-6.89,3.09-6.89,6.89,3.09,6.89,6.89,6.89,6.89-3.09,6.89-6.89Z"/>
  <polygon class="cls-1" points="97.66 358.07 124.7 358.07 124.7 344.91 97.66 344.91 97.66 335.19 127.56 335.19 127.56 321.3 81.81 321.3 81.81 378.49 97.66 378.49 97.66 358.07"/>
  <path class="cls-1" d="M194.8,349.73c0-16.42-13.08-29.58-30.72-29.58s-30.88,13.32-30.88,29.74v.16c0,16.42,13.07,29.57,30.72,29.57s30.88-13.32,30.88-29.74v-.17ZM178.62,350.06c0,8.25-5.8,15.28-14.54,15.28s-14.62-7.19-14.62-15.44v-.17c0-8.25,5.8-15.28,14.46-15.28s14.7,7.19,14.7,15.44v.16Z"/>
  <path class="cls-1" d="M254.2,340.99v-.16c0-5.63-1.72-10.05-5.07-13.32-3.84-3.92-9.88-6.21-18.63-6.21h-27.04v57.19h15.85v-17.32h6.94l11.52,17.32h18.3l-13.64-19.93c7.11-3.02,11.77-8.82,11.77-17.57ZM238.26,341.97c0,4.17-3.1,6.78-8.49,6.78h-10.46v-13.73h10.38c5.31,0,8.58,2.29,8.58,6.78v.16Z"/>
  <polygon class="cls-1" points="307.71 378.49 307.71 335.19 324.87 335.19 324.87 321.3 274.7 321.3 274.7 335.19 291.86 335.19 291.86 378.49 307.71 378.49"/>
  <polygon class="cls-1" points="384.26 321.3 368.41 321.3 368.41 342.7 348.07 342.7 348.07 321.3 332.22 321.3 332.22 378.49 348.07 378.49 348.07 356.76 368.41 356.76 368.41 378.49 384.26 378.49 384.26 321.3"/>
  <polygon class="cls-1" points="410.49 365.01 410.49 355.94 437.94 355.94 437.94 343.44 410.49 343.44 410.49 334.78 440.8 334.78 440.8 321.3 394.8 321.3 394.8 378.49 441.21 378.49 441.21 365.01 410.49 365.01"/>
  <path class="cls-2" d="M98.39,433.64h8.4c15.23,0,26.35-7.61,26.35-22.06v-.17c0-13.57-9.98-21.53-25.47-21.53h-26.26v61.26h16.98v-17.5ZM98.39,404.15h7.96c6.13,0,9.8,2.8,9.8,8.06v.17c0,4.82-3.68,7.97-9.71,7.97h-8.05v-16.19Z"/>
  <polygon class="cls-2" points="140.31 389.88 140.31 451.15 186.96 451.15 186.96 436.27 157.29 436.27 157.29 389.88 140.31 389.88"/>
  <path class="cls-2" d="M215.4,389.45l-26.08,61.7h17.86l4.38-10.94h23.63l4.47,10.94h18.2l-26.08-61.7h-16.37ZM216.54,426.99l6.92-17.41,6.83,17.41h-13.74Z"/>
  <polygon class="cls-2" points="321.66 451.15 321.66 389.88 304.85 389.88 304.85 422.27 279.65 389.88 263.8 389.88 263.8 451.15 280.61 451.15 280.61 417.54 306.78 451.15 321.66 451.15"/>
  <polygon class="cls-2" points="381.78 404.33 381.78 389.88 332.51 389.88 332.51 451.15 382.22 451.15 382.22 436.71 349.31 436.71 349.31 426.99 378.72 426.99 378.72 413.6 349.31 413.6 349.31 404.33 381.78 404.33"/>
  <polygon class="cls-2" points="387.47 404.76 405.85 404.76 405.85 451.15 422.83 451.15 422.83 404.76 441.21 404.76 441.21 389.88 387.47 389.88 387.47 404.76"/>
  <path class="cls-2" d="M434.59,444.79c0-1.24-.92-1.79-2.23-1.79h-2.54v5.32h1.5v-1.59h.64l1.07,1.59h1.73l-1.27-1.85c.66-.26,1.1-.84,1.1-1.68ZM432.28,445.54h-.95v-1.27h.95c.52,0,.81.23.81.64,0,.38-.29.64-.81.64Z"/>
  <path class="cls-2" d="M432.02,440.36c-2.98,0-5.35,2.46-5.35,5.38v.03c0,2.92,2.34,5.35,5.35,5.35s5.35-2.46,5.35-5.38v-.03c0-2.92-2.34-5.35-5.35-5.35ZM436.47,445.74c0,2.46-1.94,4.51-4.45,4.51s-4.45-2.02-4.45-4.48v-.03c0-2.46,1.94-4.51,4.45-4.51s4.45,2.02,4.45,4.48v.03Z"/>
  <g>
    <path class="cls-2" d="M81.41,476.76h11.59v3.01h-11.59v-3.01Z"/>
    <path class="cls-2" d="M113.01,481.42v3.55h-13.03v-16.23h12.73v3.55h-8.18v2.74h7.21v3.43h-7.21v2.97h8.49Z"/>
    <path class="cls-2" d="M130.36,468.74v16.23h-3.78l-7.16-8.65v8.65h-4.5v-16.23h3.78l7.16,8.65v-8.65h4.5Z"/>
    <path class="cls-2" d="M149.34,468.74l-6.96,16.23h-4.52l-6.93-16.23h4.96l4.4,10.57,4.5-10.57h4.54Z"/>
    <path class="cls-2" d="M149.92,468.74h4.59v16.23h-4.59v-16.23Z"/>
    <path class="cls-2" d="M164.12,480.66h-2.5v4.31h-4.59v-16.23h7.42c1.47,0,2.74.24,3.83.73,1.08.49,1.92,1.18,2.5,2.09.59.9.88,1.97.88,3.19s-.27,2.2-.82,3.07c-.55.87-1.33,1.56-2.35,2.05l3.5,5.1h-4.92l-2.94-4.31ZM166.3,472.98c-.48-.42-1.19-.63-2.13-.63h-2.55v4.75h2.55c.94,0,1.65-.2,2.13-.61.48-.41.72-.99.72-1.75s-.24-1.35-.72-1.76Z"/>
    <path class="cls-2" d="M176.78,484.21c-1.37-.73-2.44-1.73-3.22-3.01-.78-1.28-1.17-2.73-1.17-4.33s.39-3.05,1.17-4.34c.78-1.28,1.85-2.29,3.22-3.01s2.91-1.09,4.62-1.09,3.26.36,4.63,1.09,2.44,1.73,3.22,3.01c.78,1.28,1.17,2.73,1.17,4.34s-.39,3.05-1.17,4.33c-.78,1.28-1.85,2.29-3.22,3.01-1.37.73-2.91,1.09-4.63,1.09s-3.26-.36-4.62-1.09ZM183.63,480.91c.66-.39,1.19-.93,1.58-1.63.39-.7.58-1.51.58-2.42s-.19-1.72-.58-2.42c-.39-.7-.91-1.25-1.58-1.63-.66-.39-1.41-.58-2.23-.58s-1.56.19-2.23.58c-.66.39-1.19.93-1.58,1.63-.39.7-.58,1.51-.58,2.42s.19,1.72.58,2.42c.39.7.91,1.25,1.58,1.63.66.39,1.41.58,2.23.58s1.56-.19,2.23-.58Z"/>
    <path class="cls-2" d="M207.46,468.74v16.23h-3.78l-7.16-8.65v8.65h-4.5v-16.23h3.78l7.16,8.65v-8.65h4.5Z"/>
    <path class="cls-2" d="M224.63,484.97l-.05-8.6-4.17,7h-2.04l-4.15-6.77v8.37h-4.24v-16.23h3.78l5.7,9.37,5.56-9.37h3.78l.05,16.23h-4.22Z"/>
    <path class="cls-2" d="M244.4,481.42v3.55h-13.03v-16.23h12.73v3.55h-8.18v2.74h7.21v3.43h-7.21v2.97h8.49Z"/>
    <path class="cls-2" d="M261.75,468.74v16.23h-3.78l-7.16-8.65v8.65h-4.5v-16.23h3.78l7.16,8.65v-8.65h4.5Z"/>
    <path class="cls-2" d="M267.51,472.38h-4.98v-3.64h14.54v3.64h-4.96v12.59h-4.59v-12.59Z"/>
    <path class="cls-2" d="M287.14,481.82h-6.86l-1.27,3.15h-4.68l7.16-16.23h4.52l7.19,16.23h-4.78l-1.28-3.15ZM285.8,478.43l-2.09-5.19-2.09,5.19h4.17Z"/>
    <path class="cls-2" d="M293.76,468.74h4.59v12.59h7.74v3.64h-12.33v-16.23Z"/>
    <path class="cls-2" d="M324.5,469.47c1.08.49,1.92,1.18,2.5,2.09.59.9.88,1.97.88,3.19s-.29,2.28-.88,3.18c-.59.9-1.42,1.59-2.5,2.07-1.08.49-2.36.73-3.83.73h-2.83v4.24h-4.59v-16.23h7.42c1.47,0,2.74.24,3.83.73ZM322.53,476.5c.48-.41.72-.99.72-1.75s-.24-1.35-.72-1.76c-.48-.42-1.19-.63-2.13-.63h-2.55v4.75h2.55c.94,0,1.65-.2,2.13-.61Z"/>
    <path class="cls-2" d="M339.02,481.82h-6.86l-1.27,3.15h-4.68l7.16-16.23h4.52l7.19,16.23h-4.78l-1.28-3.15ZM337.67,478.43l-2.09-5.19-2.09,5.19h4.17Z"/>
    <path class="cls-2" d="M352.73,480.66h-2.5v4.31h-4.59v-16.23h7.42c1.47,0,2.74.24,3.83.73,1.08.49,1.92,1.18,2.5,2.09.59.9.88,1.97.88,3.19s-.27,2.2-.82,3.07c-.55.87-1.33,1.56-2.35,2.05l3.5,5.1h-4.92l-2.94-4.31ZM354.91,472.98c-.48-.42-1.19-.63-2.13-.63h-2.55v4.75h2.55c.94,0,1.65-.2,2.13-.61.48-.41.72-.99.72-1.75s-.24-1.35-.72-1.76Z"/>
    <path class="cls-2" d="M365.5,472.38h-4.98v-3.64h14.54v3.64h-4.96v12.59h-4.59v-12.59Z"/>
    <path class="cls-2" d="M391.27,468.74v16.23h-3.78l-7.16-8.65v8.65h-4.5v-16.23h3.78l7.16,8.65v-8.65h4.5Z"/>
    <path class="cls-2" d="M406.82,481.42v3.55h-13.03v-16.23h12.73v3.55h-8.18v2.74h7.21v3.43h-7.21v2.97h8.49Z"/>
    <path class="cls-2" d="M415.83,480.66h-2.5v4.31h-4.59v-16.23h7.42c1.47,0,2.74.24,3.83.73,1.08.49,1.92,1.18,2.5,2.09.59.9.88,1.97.88,3.19s-.27,2.2-.82,3.07c-.55.87-1.33,1.56-2.35,2.05l3.5,5.1h-4.92l-2.94-4.31ZM418.01,472.98c-.48-.42-1.19-.63-2.13-.63h-2.55v4.75h2.55c.94,0,1.65-.2,2.13-.61.48-.41.72-.99.72-1.75s-.24-1.35-.72-1.76Z"/>
    <path class="cls-2" d="M429.62,476.76h11.59v3.01h-11.59v-3.01Z"/>
  </g>
</svg>