<?xml version="1.0" encoding="UTF-8"?>
<svg id="Calque_1" data-name="Calque 1" xmlns="http://www.w3.org/2000/svg" xmlns:xlink="http://www.w3.org/1999/xlink" viewBox="0 0 512 512">
  <defs>
    <style>
      .cls-1 {
        fill: #fff;
      }

      .cls-2, .cls-3 {
        fill: none;
      }

      .cls-3 {
        stroke: #c01818;
        stroke-width: 6px;
      }

      .cls-4 {
        fill: #c01818;
      }

      .cls-5 {
        clip-path: url(#clippath);
      }
    </style>
    <clipPath id="clippath">
      <rect class="cls-2" x="34.29" y="20.2" width="443.41" height="465.15"/>
    </clipPath>
  </defs>
  <path class="cls-4" d="M458.03,257.25c0,109.99-89.16,199.16-199.15,199.16S59.72,367.24,59.72,257.25,148.88,58.09,258.88,58.09s199.15,89.17,199.15,199.16Z"/>
  <g class="cls-5">
    <path class="cls-3" d="M476.26,266.52c0,120.05-97.33,217.38-217.38,217.38S41.5,386.57,41.5,266.52,138.82,49.15,258.88,49.15s217.38,97.31,217.38,217.36ZM470.5,239.02c0,120.06-97.32,217.38-217.38,217.38S35.74,359.07,35.74,239.02,133.07,21.65,253.12,21.65s217.38,97.32,217.38,217.37h0Z"/>
  </g>
  <path class="cls-1" d="M217.42,240.12c.66,2.26-.94,4.73-.75,6.79-3.01-1.23-3.78-3.71-2.07-6.79.78-1.43,2.89-1.9,2.81,0ZM192.07,250.81c-1.26-.39-1.64-2.2-2.08-3.93-.5-1.75,3.66-5,3.63-1.62-.23,1.98-1.1,3.66-1.55,5.55h0ZM153.84,274.4c-.38-.18-.63-.57-1.15-.53-.03-.57,1.19-.36,1.67-.62.04.5-.56.63-.52,1.14h0ZM170.75,254.03c.5.67.68,1.83.91,2.89-3.05,3.41-5.72,7.1-9.65,9.95-.42-5.43,1.33-13.1,8.74-12.84h0ZM250.78,244.09c.78-.88,1.38-3.36,2-3.93,3.12-2.99,4.78-1.76,7.61.84-.09,2.5-2.96,4.72-4.19,6.31.16.55.59.51.75,1.11-.71.3-1.39.54-1.85.31-.89,3.39-6.39,4.82-8.37,3.72.97-1.55,3.14-7.28,4.05-8.36h0ZM267.91,257.53c-.65.87-.63,2.14-1.4,2.91-3.38.78-3.75,3.54-5.65,4.88-.02,0-4.36,3.03-4.83,4.05-4.69.51-9.89-.03-9.29-7.05.64-1.31,2.5-4.41,4.53-4.16,3.11-3.93,8.28-6.6,9.85-11.52,1.76-.36,3.33-2.81,2.2-5.16.36-.07.66-.14.99-.21.14-1.12-1.37.36-1.22-.76,1.37-.28.62-1.87,1.53-2.42.15.44.03,1.29.71.87.06-4.13-3.37-6.36-5.61-8.84-2.88.45-6.41.93-7.33,4.24-2.5.97-4.35,4.12-4.9,7.05-1.63.74-2.2,2.12-2.24,3.87-3.85,2.9-3.19,8.7-4.84,13.01.33.6.48,1.29.44,1.97-2.21,1.27-3.28,2.55-5.1,4.08,0,2.32-2.99,2.76-3.31,4.88-.31.06-.41-.23-.79-.07-.1.85-.76,1.34-.8,2.25-.82-.48-2.5.41-3.18-.33-.2-2.9-1.48-5.92-1.2-8.79.1-.94.94-1.73.99-2.56.05-.74-.55-1.49-.49-2.21.07-.78.82-1.95.91-2.8.3-2.34-.39-4.29-1.92-3.96-.11-.49-.23-.99-.33-1.48-1.91-.57-4.22-.48-5.03-2.77,1.59-1.35.05-4.13-.15-6.43-.1-1.23.4-1.97.08-3.12-.12-.45-.85-.93-1.07-1.31-.63-1.17-.74-2.73-2.14-2.62.45-.07.53-.36.33-.86-3.25,1.43-4.55,6.3-6.22,9.17-.79,1.34-2.07,1.93-1.19,3.91-1.1,1.27-1.54,3.96-.33,5.5.33.62-.38.59-.27,1.07,1.59.64,2.42,2.43,3.64,3.6,1.34,0,2.28.64,3.15,1.37-.51.3.21,1.39.19,2.05-.66.16-.58-.32-.98.2-.14.83.23.68.39,1.73-3.61,2.3-2.52,7.56-6.08,9.89.18.41.19.87.04,1.29-2.58.29-2.19,5.69-6.35,6.34-3.73-1.1.68-7.43-1.32-11.61,1.22-2.41.18-6.24.85-8.99-.44-.2-1.07-.08-1.4-.45-.58-2.8-4.79-2.38-5.87-5.41.71-1.3,0-3.52,1.33-4.45.67-4.58-.55-6.43-2.37-10.6-.88.39-1.24-.04-2.02.19,0,.31.2.68-.09.8-2.66.36-1.79,2.96-3.82,3.71-.21,2.04-1.37,3.5-2.82,4.78-.79,2.26-.8,5-1.79,7.13,1.22,1.02.81,3.05.74,4.48.44.55.84-.71,1.29-.03-.39.11-.86.15-.62.65.12.5.23,1,.34,1.48,2.9.31,4.29,3.82,2.18,6.24-.05.48.94.88.27,1.25-.87.36-1.07-.32-1.84-.1-3.24,7.44-9.67,12.89-14.57,19.3-1.94.69-4.22.44-5.12,1.41-.71-1.43-2.24-1.77-3.06-3.18-1.19-2.14-1.25-5.52-1.37-7.21-.36-.32-.84-.45-1-1.07,1-4.81,6.24-6.34,8.17-10.89,3.75-2.7,4.47-7.32,7.51-10.48.07-4.08-.36-6.87-2.27-9.05-.83-.96-1.37-2.7-3.27-1.85-.48.17.18,1.1-.51,1.14-.36-.54-1.14-.42-1.9-.36-1.17.54-1.21,1.79-2.93,1.96-2.88,3.15-4.33,7.26-6.94,10.6-.74,3.07-2.66,6.46-2.26,9.55-.88.57-.56,1.92-1.53,2.42-.64.36-.71-.2-1.29.03-.04.48.11,1.07-.2,1.34-.58-1.34-1.57-.33-2.8-.92-.56.46.5,1.16.03,1.29-.38-.18-.64-.56-1.14-.53-.4,1.09-1.5,1.74-1.38,3.15,1.52-.55.65,2.11.13.5.66,2.52,3.24,4.75,4.94,3.54,2.29,1.14,1.93,3.79,2.31,6.65l-6.93,6.56c-1.45,1.15-2.39,2.62-4.59,3.27-8.94-13.23-2.5-38.86.88-51.64,8.22-5.92,12.53-1.58,17.54-4.71,1.99.14,4.44-1.07,6.36-1.79.15,0,2.38-.96,2.5-.97l1.48-.44c.5-.76,2.4-1.14,2.7-.89,8.58-4.87,19.52-6.25,28.11-12.35-2.25-.23-1.25-1.23-3.37-2.18-7.2,3.8-24.73,9.15-25.14,9.22-2.68,1.43-6,1.53-8.54,3.41-2.22-.32-5.63,1.52-7.84,2.61-1.03-.06-4.27-.57-5.19-.68-2.5,1.3-5.67,1.09-8.3,3.11-1.86-3.66,1.65-9.24-.27-12.99.64-6.19.31,1.71-1.4-5.31-.84.33-.93-.49-1.89.03-6.16,10.39-2.21,10.1-5.81,21.76-12.41,4.05-8.87,5.17-13.12,5.05-.27,0-.39.26-.64.28s-.52-.24-.75-.26c-1.59-.13-3.22.36-4.35.51-.41,1.12-1.24,1.96-1.23,3.34.59.51.98,0,1.66-.08,3.34-.46,6.67-.86,10.11-1.59,2.69-.58,1.53-1.02,8.44-2-.65,6.65-3.57,18.76-3.24,26.04-1.67.38-1.69,1.82-1.54,3.37-3.08,3.93-4.72,8.79-7,13.23-3.85,3.85-4.69,9.63-10.19,12.42-.31,1.05-.71,2.42-1.32,3.33-.26.39-.28.77-.63,1.07-.74.58-2.14.57-2.94.23.07.2.11.42.14.63-.26-.07-.52-.18-.76-.31-.09.94-.75,2.45-1.89,2.03.04.88-.45,1.43-1.29,1-.14.4-.42.74-.79.96-.09-.11-.18-.23-.28-.36-.5.36-1.16.41-1.71.12-.03.21-.15.43-.16.67-.62-.21-1.26.09-1.82.52-.49-.81-1.38-1-1.87-.11-.13-.15-.28-.3-.42-.44-.14.16-.22.35-.23.56.06-.35.07-.7.02-1.05-.58-.04-2.92-.55-2.5.74-.16-.26-.3-.53-.43-.81-.61.49-3.98,2.03-3.33.06-.07.4-.43.69-.84.68-.14-1.33-1.5-.44-2.1-.71-.73-.91-1.49-2.96-2.91-2.67.07-.18.19-.33.33-.45-.71.34-.84.4-.87-.45.1,2.18-2.17-.53-2.5-.88-.68.55-1.4,1.04-2.16,1.47,0-.64-.43-1.46-.34-2.09-1.22,1.23-2.53.51-3.11,2.14.43-.31.92-.53,1.43-.67-1.58.16,4.52,4.93,5.12,5.07.71.19,3.18.8,2.69,1.27,1.82.1,6.38,2.14,6.52,2.01.42-.42,2.88.36,5.26.71,1.5.24,4.95.31,6.21-1.38,0,.36,1.95-.93,2.14-.65.11-1.2,1.19-.65,1.32-1.34,1.59,0,4.55-1.55,6.43-2.64.53-.22,1.02-.52,1.45-.89.18-.11.28-.19.29-.24,1.99-1.87,2.98-4.9,5.21-6.43,1.22-3.26,3.67-5.74,4.44-9.29,2.6-1.76,2.47-5.26,4.9-7.13.36-1.22.31-2.69,1.11-3.64,3.49,7.41.96,17.48,8.11,23.61,5.54-.32,7.89-4.71,10.41-7.93l6.58-8.16c.88,2,1.95,3.73,2.63,5.36.66.76,3.27,3.22,6.75,2.37.06-.39-.57-1.21-.04-1.29.33.26.45.85.97.82,3.13-1.37,6.74-3.57,5.58-7.47.63.52,1.59.59,2.88.13.08-2.42,2.36-3.44,3.18-5.36,2.62-.2,2.41-3.74,4.89-4.71,0-.91-.57-.87-.62-1.69,2.59-1.59,5.69-4.46,5.59-8.49.94-.67.86-1.99,2.33-2.34.03-2.56,2.5-3.81,4.98-3.17,4.26,4.65-1.01,8.76,1.25,13.68-2.05.87-.71,2.89-.53,4.54.27,2.66-.06,5.88,2.64,7.17,3.02-.21,2.58-2.5,3.34-3.57,3.71-.58,3.52-5.36,6.72-6.95,2.04-3.36,3.04-7.4,6.02-10.15.05-.59.29-1.07.11-1.84,2.46-1.97,1.74-5.93,3.57-8.3.33,1.02,1.56.63,2.11,1.32-.5.83,0,2.26.29,3.57-2.07,5.28-1.51,13.65,1.87,18.73,1.54-.2,2.14-.4,3.26-.48.31-1.27,1.86-1.76,2.14-3.06,3.6-1.98,4.65-6.23,7.33-8.89.82-.43.59-.17,1.43-.58.17-1.1.71-1.22,1.74-1.79.39.19.83.25,1.16.52.86,2.75,2.62,3.96,3.81,4.95.88.76,1.82,2.26,3.18,2.67.51.15,1.82-.29,2.57-.08,1.12.33,4.29.74,5.69.02.43-.21.83-1.12,1.46-1.62,1.87-1.54,2.58-.74,2.92-2.59.45.44.8-.43,1.53-.09,4.44-4.78,9.1-9.47,11.24-15.7-.37-.15-.65-.48-.71-.88-3.1.28-2.29,3.05-4.87,3.67h0Z"/>
  <path class="cls-1" d="M287.81,315.26c-.04-.51,1.1-.36,1.55-.6.64-2.66,2.27-5.33,1.43-8.31-2.06-.07-1.66.87-1.91,2.14-1.55.08-.65,1.67-1.97,1.9-.13.79.23.66.38,1.59-.31.12-.65.12-.95,0,.52,1.89-.06,2.77,1.5,3.27h-.01Z"/>
  <path class="cls-1" d="M364.33,335.12c-1-.49-1.39-2.46-1.19-3.66-.23-1.37.89-3.34,2.05-5.3.36-.07.71-.13,1.07-.19,2.53,2.55.83,7.65-1.93,9.15ZM255.59,324.5c.49-4.15-.36-8.28,1.62-13.52,2.25-3.39,1.27-7.63,2.73-11.37.81-.13,4.16-7.74,4.11-11.15,3.08-2.23,4.1-7,8.39-8.87,2.81.65.66,7.15,2.18,8.22.07.71-.86.91-1.04,1.5,2.3.82-.71,3.51.4,6.58-1.91.33-1.02,1.99-.88,3.28-.84.09-.58.68-1.59.71.15,4.02-4.74,6.94-3.09,10.85-2.86.91-1.82,3.57-4.13,4.73.33.61,1.24,1.34.15,1.81s-.71-.46-.56-.76c-1.84.44-2.86,3.89-2.22,4.76-2.47,1.82-2.6,7.54-5.6,9.98-.99-.97-.65-4.89-.45-6.77l-.03.02ZM305.05,322.25c.45.36,1.1.28,1.46-.17h0c.05-.07.09-.14.13-.21,5.12,3.28-2.5,8.56-3.57,12.13-1.82.82-1.74,1.4-2.53,2.86-.71-.06-.76-.04-1.36.33-.25-.14-.29-.61-.63-.59,2.43-4.67,4.03-9.38,6.51-14.33h-.01ZM409.23,304.59c1.26-.44.85-12.15-.66-11.83-.39.38-.16.62-.16.62,1.43,2.05-.4,11.3-1.54,13.65-.43,2.72-3.51,4.79-5.18,6.71-2.91,1.56-5.64,3.3-8.97,5.34-.16.09-.31.2-.46.31-.03.02-.07.04-.11.06h0c-.61.48-1.18,1-1.71,1.56-4.67,1.33-7.26,6.66-12.95,7-.54-.83-1.54-.9-2.8-.56-4.96-3.55,1.37-11.46.14-16.29.44-.05.43-.38.86-.46-1.07-4.32.77-10.55-2.96-11.6-.13-.88,1.03-.06.28-.78-1.59.91-2.96,3.64-4,5.53-1.95.79-3.54,3.52-4.34,5.13-1.63,1.34-2.46,3.17-3.16,5.1-1.91,1.07-1.92,3.36-3.77,4.51-.3,2.34-3.02,3.2-3.26,5.59-3.99,2.41-5.17,6.6-8.68,9.29-.04.75-.29,1.48-.71,2.11-.99-.43-1.33.91-2.12,1.24-1.79-.87-1.14-4.03.05-4.86-1.09-2.09.11-3.46-.65-5.88,2.14-4.35,2.18-8.92,2.65-14.4-.54-.06-.62-.91-1.01-1.21-.76.36-1.07,0-1.32-.41-5,.83-6.73,5.43-10.37,8.25-2.93-1.16-.3-6.43-3.81-7.33-1.27,1.88-1.75,3.6-4.13,5.08-.19,1.91-1.72,2.97-1.72,5-.3-.14-.26-.82-.84-.53.15,3.29-3.51,4.22-2.73,7.89-1.84,1.67-2.28,4.93-4.29,6.5.09.38.19.74.28,1.14-3.65,2.23-6.1,6.57-8.45,10.21-.36.03-.48-.29-.8-.31.19.5.15.88-.25,1.03-2.27,1.2-3.47,3.81-6.43,4.1-1.5-1.77-2.99-6.19.31-7.47.08-.61.81-2.24.96-2.79.38.24,1.05,0,1.66-.16,1.97-3.93,5.08-6.92,6.92-10.9.05-.14.61-.03.68-.17.23-.55,0-1.79.55-2.78s1.96-2.36,1.14-3.41c.41,0,.81-.19,1.07-.51.42-1.79-.55-3.39-.23-5-1.04-.66-1.28-1.25-1.1-2.63-.88-.28-1.57-.86-2.61-.84-2.01,1.68-4.72,2.96-4.93,5.76-.8.71-2.05,1.37-1.35,2.48-.79.3-.87,1.03-1.61,1.37.6,1.2-.75,1.22-.14,2.45-2.14,1.68-1.49,5.06-3.75,6.68.21,1.63-.12,2.91-1.58,3.51-.58,4.68-2.73,8.34-5.18,11.85-.36.09-.75.18-1.15.27.19,1.18-1.57,1.67-.82,2.61-1.88.76-3.39,3.22-5.32,1.98-.09-.97.91-.36.68-1.12-.07-1.04-.91-.87-1.12-1.67.12-.85,1.07-1.18.93-2.14-1.25-2.67.82-3.41-.3-6.43,1.79-1.29,0-4.81,1.95-6.02-.08-.38-.18-.76-.27-1.14,2.5-1.91,1.97-5.69,4.21-7.76-.6-1.83-.29-2.14-1.72-3.22.6-.15,1.32-.23,1.55-.61.04-1-.68-.78-.83-1.49.47-.33,1.15.56,1.19-.05-.36.04-.33-.5-.45-.87-1.61.23-2.03,1.23-2.93,1.91.34,1.74-2.61,4.08-2.24,5.85-.04-.14-.11-.26-.28-.17.48,1.76-1.12,2.5-1.53,3.72-.3.85.21,2.17-.66,2.34.23,4.69-4.47,6.35-5.54,10.24-1.1.63-1.56,1.65-1.74,2.83-2.69,1.31-3.5,6.37-6.43,7.56,0,1.04-1.64,1.07-1.1,2.43-1.91,1.62-4.36,2.75-6.12.73.06.36.23.77-.3.78-.29-2.29-1.19-4.29-2.68-5.16.65.33.74.3,1.17-.28,0-1.07-.67-1.04-.91-1.71,1.21-1.05-.1-2.6.55-3.91-1.32-3.34-.3-5.18.16-10.79,2.22-3.51,4.13-8.45,4.55-8.51,1.14-1.86,1.38-6.9,3.41-7.56,4.74-7.79,7.72-16.42,11.53-24.66-.57-.95.36-1.56-.57-1.98.48-.07.93-.29,1.27-.64-.82-4.55.88-7.94.94-12.11-3.16-1.69-.68-7.98-4.73-9.1-6.95,1.63-7.01,6.08-11.54,8.82.04,1.37-.71,2.11.21,3.3-3.17,3.78-6.09,13.44-6.09,14.4-2.05,4.03-2.33,9.57-3.77,13.18,0,.91.8.67.8,1.59-2.07,1.5-2.42,4.71-1.49,6.18-.45.09-.6-.23-1.11,0,.92,2.68.39,5.55.75,8.63.3,3.11-.2,6.73.15,9.42.13,1.01-8.79,12.39-9.6,13.2-1.33,1.38-.68,1.79-1.72,3.03-1.46-.45-2.14,1.4-2.5,2.48-.36.04-.44-.26-.87-.13-1.07,2.63-4.17,3.8-5.08,6.56-2.76,1.04-15.08,11.21-19.44,11.05-.05,1.43-.26.56-1.12.78-.82.91-1.43,2.5-1.93,3.57,1.11.19,21.05-5.69,21.35-9.17,2.07-.59,4.18-3.15,5.22-5.25,1.46-.81,3.04-2.12,2.96-3.33,3.24-.75,2.7-4.19,5.5-5.29-.31,1.1,8.22-11.24,8.31-10.62-.57,6.77-.26,16.8,3.7,21.39,0-.19.14-.33.4-.33.33,1.48,1.83,2.73,2.71,2.25-.19,0-.31-.12-.33-.4.5.23,1.37-.09,1.93.03,3.51-2.39,6.03-6.21,8-10.1,1.87-.75,3.52-3.27,3.73-5.72,1.63-.18,1.33-1.52,2.41-2.02-.33-.54-.66-1.2-.15-1.65.43-.16.58.14.99,0,.1-.89.64-1.66,1.45-2.05,2.41,4.83-1.07,10.32,1.74,14.56,1.79.71,3.17.04,4.97-.45.84-1.98,2.96-3.13,3.89-5.03-.07-.9-.93-2.28-.14-2.63.46.5.71,1.37,1.33,1.62,0-1.07,1.1-1.43,1.71-2.11.61.47,1.14,1.09,1.79,1.52-.26,2.62,2.33,3.67,4.05,4.84,1.54-.39,1.89-1.04,3.44-.8,1.45-.96,1.39-3.54,4.15-3.9.28-.99,1.32-1.52,1.57-2.52,1.46-.45,1.47-1.62,2.1-2.43.53-.71,1.65-1.23,2.18-1.97.71-.99.56-2.86,1.98-2.88-.17-.38-.19-.8-.06-1.19,2.06-2.14,5-4.53,4.78-7.42,3.82-3.04,3.18-9.53,7.1-12.95,1.75,2.5,0,3.67,1.41,6.06-.26.29-.82.36-1.07.65,0,2.68-2.4,5.09-1.19,7.33-1.17.6-2.46,2.03-1.55,3.61-1.43-.06-.42,1.59-1.62,1.7.94,1.28-.15,2.32-.14,3.59,1.2-.42,1.43.48,2.07.87-.19-.99.02-.59.43-.34-.09-1.07.46-1.69,1.59-1.9.04-.93.27-1.72,1.07-2.09-.11-.61-.2-1.24-.31-1.86.39-.07.78-.14,1.18-.19-.65-2.11,1.14-3.57.23-5.76.61-.27.55.4,1.01.31,1.52-4.46.66-7.2,4.06-10.27,0-.95-1.12-.75-.61-1.56.66-.2,1.73.06,2.14.23,1.18-2.01,4.05-2.96,6.22-4.36.36,1.21.28,1.22.95,1.96-2.45,4-1.19,9.13-2.86,13.48.43,3.51-.54,5.32-.44,8.32.34,1.24,1.38,1.37,1.79,2.47,2.63.08,4.43-1.4,4.84-4.05,2.21-.58,1.58-2.91,4.03-3.35-.21-1.75.83-2.73,2.33-3.45-.13-3.41,5.21-3.41,4.6-7.15,1.13-.1.76-.71,1.33-1.52,2,.33.71-2.73,2.96-2.86.04-2.46,2.35-3.49,3.31-5.36-.15-1.45.63-2.36,1.69-3.06-.28.03.26-1.71,1.74-1.86.26-.56.37-1.17.3-1.79-.09-.63,2.81-2.09,3.57-4.22,1.89,4.11.7,7.31.32,11.51-4.16-.79-4.73,3.44-6.08,6.03-1.2.3-1.46,1.16-1.68,2.08.49-.15.78,0,.86.53-.57.03-.39.52-1.09.49-2.14,4.38-3.53,12.51,1.92,15.26-.68-1.24.36-1.43,1.15-1.24.32-.9.77-1.74,1.33-2.5,2.37-1.28,1.79-4.38,3.96-5.78,2.23,2.5,9.36,3.1,10.91-.88,2.6-.31,6.54-2.68,7.25-5.09.83-.33,1.18.2,1.76.3,1.57-.95,2.07-3.6,4.38-2.96,0-.59.91-.59.36-1.54.65-.24,1.22-.67,1.64-1.23,1.43-1.28,3.71-3.46,5.04-3.52.89-1.03,1.72-2.11,2.47-3.24-.28.38,1.91-2.86,2.31-2.8.42-.68.89-.84.5-1.62.71.47.39-.49,1-1.17.25-1.04.79-1.99,1.54-2.75.02.16.31-.59-.43-1.67l.07.04Z"/>
  <path class="cls-1" d="M233.47,330.21c-.04-.06-.06-.12-.06-.19h.14l-.08.19ZM204.16,327.06c-.28.1-.33-.13-.57-.1.02,1.47-3,3.79-2.42,5.66-.15.23-.46.29-.69.13l-.03-.02c-.96,2.45-3.67,4.25-3.97,6.65-.93.13-.94.93-1.25,1.51-.82-.6-1.4.49-1.89,1.07-.35-.39-.87-.59-1.39-.52-.08-.93-.28-1.69-1.03-1.7-1.07-4.52,3.5-8.71,3.89-12.65,1.57-.86,1.98-2.52,2.71-3.99.38-.16.31.3.6.28.71-.49.82-.99.43-1.95,1.66,0,1.12-2.37,2.47-2.09.13-.62-.61-.04-.48-.66,2.29.68,4.02-2.75,6.01-1-.28,1.32.43,3.01,0,4.51-1.52,1.13-1.71,3.17-2.39,4.89h0ZM222.09,319.27c0-1.76,2.82-2.46,2.43-4.36,3.78-3.66,5.95-1.73,6.3.84.29,2.13-2.37,2.12-2.86,4-1.43.26-2.24,1.02-2.25,2.4-.96,0-4.51,2.36-5.18,1.89s1.53-3.77,1.54-4.78h.02ZM241.66,318.72c-.18-.1-.36-.11-.85.09l-1.14,2.31c.38,1.16-.84,1.73-1.04,2.58-.71.69-1.38,1.42-2.02,2.19.01-.04.02-.08.02-.11-3.15,2.98-9.1,7.47-13.88,10.17-.03-.2-.04-.38-.09-.58-2.33.71-3.49-.02-4.65-.85,0-1.38-.49-4.68.31-5.44.67-.1,1.19-.74,1.87-.85.45,0,.43.63,1.02.49,1.14-.3.27-1.09,1.19-1.52.4.09.17.97.85.68.51-.11.25-.84.66-1.04,2.1.57,3.07-2.61,5.28-3.13.33-.96,1.18-1.49,1.04-2.86.54-.08.55-.59,1.68-.57.38-.65.1-.91.21-1.59,2.71-1.12,1.92-4.01,2.73-6.71-.92-1.12-.43-1.48-.95-3.22-.59-.03-1.39-.46-.68-.91-.36-.31-.55.15-.93.3-.39-.34-.55-.91-.94-1.25-.69.36-1.79.08-2.7.11-1.11,1.66-3.61,2.23-3.95,4.54-2.11-.17-1.28,2.92-3.7,3.33.33,2.12-1.57,2.45-2.08,3.93.49,2.37-1.94,2.4-1.59,4.65-.25.03-.51.06-.77.09.48,1.37-.58,1.53-.91,2.24-.39,2.5-2.75,3.93-2.56,6.5-2.47,1.02-1.91,2.52-3.89,3.84-1.87-2.6-1.5-6.76-.36-8.94.13-.84-.75-.74-.39-1.27.98.05,1.95-1.23,1.4-2.84.43-.13.25-.68.83-.69-.31-2.18.75-4.78,1.17-6.56.27-1.18,0-2.38.25-3.04.1-.28.57-.39.64-.66.23-.87-.04-2.28.23-3.24.18-.62.51-.66.56-1.2.07-1-.36-1.97-.1-2.94,0-.05.49-.14.52-.24.25-.56.07-1.48.71-1.96-.94-1.91,2.33-13.67,2.56-15.49-.02-.25-.33-.13-.41-.31.16-.45.68-.6.83-1.03-.74-.5.14-1.96-1.16-1.91-.1.46-.24.91-.4,1.35-.07-.33-.19-.6-.45-.68.09.83-.63,1.91-1.59,2.4-.86,2.82-3.75,16.57-4.39,19.07-.05-.14-.05-.36-.23-.36,0,.27.09.52.28.71-1.54,1.59.03,4.76-2.62,5.44-.39,0-.45-.43-.68-.64-.75.51-1.34.99-2.34.58-.11.29-.25.56-.43.82-.78.52-1.79.75-2.41,1.33-1.43,1.32-2.43,4.68-4.54,5.42.07.43-.23.6,0,1.14-1.27.16-.76,1.59-2.14,1.67-.45-.21-.45-.99-1.1-.94-1.74,2.14-2.47,5.07-4.11,6.85.33,2.28,0,3.18-.71,4.8.15.45.64.45.71,1.01-.16.24-.48.3-.71.14h0c-.36,1.47-1.12,3.57-.53,4.76-.28,0-.21-.45-.6-.28,0,.55.06,1.14-.36,1.37,0,.68.71.36.74,1-.25.02-.3-.19-.59-.1-.14,2.48-.3,4.11.8,6.08,1.14-.32,1.54.39,2.35.54.51-.36-.13-.51.42-.82.82-.23,1.69-.17,2.48.16.45-.58,1.75-1.02,2.46-.97.45-1.5,3.1-2.08,2.34-3.95.38-.38,1.13-.47,1.55-.81-.45.05-.14-.6.1-.58,1.91,0,1.69-4.38,4.1-3.49.31,2.25,1.05,4.41,2.17,6.39,1.9,0,2.14-.42,3.34-1.3.8-3.45,3.08-3.8,4.36-7.15,1.5,2.76,2.82,7.47,7.51,6.14.61-.71,1.17-1.51,2.73-1.48.11-1.47,2.5-1.14,2.41-2.79.08.32.38.4.81.3-.23-1.14.45-.51,1.27-.71.3-1.43,2.14-1.69,3.41-2.34-.13-1.41.82-2.68,2.19-2.98.09-.53-.32-.41-.54-.55.16-.12.33-.23.53-.36.36-.08.69-.25.96-.5.43-.22.91-.32,1.38-.27,0-.25.36-.3.1-.68.28-.13.52-.34.68-.6.58-.62,1.59-1.99,2.14-2.18.25-.54.54-1.08.84-1.59-.06.19.99-3.22,1.18-3.57.03.08.08-.27-.34-.67.51-.3.36-.59.63-1.22h.02Z"/>
  <path class="cls-1" d="M359.19,194.42c-.07-.55-.07-1.18-.09-1.76-.07-1.37.63-1.68,1.52-2.75.45.11,1.5,2.54,1.28,3.81-.09.45-.49.86-.91,1.24-.32.3-1.69.17-1.79-.55h0ZM352.48,191.96c-.36.07-.82.11-1.22.15-.95.12-1.22-.36-2.02-.91.05-.31,1.71-1.19,2.62-1.1.36.09.68.29.93.58.23.21.2,1.18-.3,1.29h0ZM365.67,176.23c.5-.23,3.22,1.38,3.87,2.75.43.87-.23,2.32-.21,3.18-1.17.6-2.21-1.02-3.2-2.26s-.57-2.05-.46-3.68h0ZM381.05,188.2c.97.38,2.03.75,2.92,1.19,1.17.6.57,3-.12,3.39-.88.48-1.82.91-2.65.8-2.28-.36-5.82-3.57-5.72-4.41,2.35-.89,3.33-1.86,5.57-.97h0ZM378.31,174.91c.45-.09,2.45,1.67,2.78,2.91.12.45-.08.99-.28,1.51-.17.41-1.47.88-1.87.27-.3-.46-.56-1.03-.84-1.54-.62-1.2-.14-1.81.21-3.15ZM346.5,251.31c9.06-8.39,18.37-14.66,29.94-19.11,12.06-4.65,24.66-7.93,36.53-13.06,3.32-1.43,6.92-2.97,10.16-4.92-11.36-28.8-39.7-61.9-59.5-69.02-29.58-10.65-58.13-3.15-77.54,7.4,2.77,2.98,5.44,6.02,7.96,8.89,5.69,6.48,13.02,13.45,16.49,15.49,2.64,1.56,5.77,1.15,9.1.68,2.83-.39,6.55.05,8.05-.05,2.96-.19,5.1-.33,7.15-.3,1.72,0,3.3-.1,4.68-.2,3.04-.23,5.23-.38,6.83.93.89.66,1.25,1.81.91,2.86-.47,1.49-2.34,3.22-5.3,3.46-2.6.21-5.21.99-8.85,2.29-2.33.84-3.3.64-4.72,2.04-1.68,1.65-3.57,3.5-2.37,7.61,1.01,3.41,3.54,6.38,7.15,8.35,3.15,1.73,6.5,3.36,9.58,3.36,1.03,0,2.11.07,3.24.13,3.37.18,7.18.4,11.17-.81,2.58-.79,5.86-1.3,6.66.66.28.66.27,1.4-.03,2.05-1.19,2.77-6.63,4.92-8.96,5.83l-.08.03c-3.08,1.21-6.83,1.11-10.42,1.02l-2.09-.05c-2.89-.03-6.56-1.12-9.5-1.98-3.34-.99-3.64-.84-3.98,0v.08c-.07.34.02.7.23.97,1.63,2.26,12.03,3.42,12.13,3.44l1.69.18c3.99.43,7.42.79,11.15.91.79.02,1.72,0,2.73-.03,2.91-.09,6.9-.21,7.77,1.31.41.71.14,1.89-.83,3.44-.89,1.43-4.51,3.6-7.7,3.64h-1.31c-5.27.08-15.08.23-22.98-2.21-1.41-.43-2.8-.94-4.15-1.54-3.93-1.82-5.97-2.56-6.31-1.96s.76,1.43,4.03,2.86c2.26,1,5.05,1.85,6.48,2.33,2.29.8,9.74,2.29,14.56,2.11,1.92-.07,3.93-.07,5.61.81.82.44.58,2.36.04,3.41-.77,1.43-3.6,2.09-4.52,2.3-2.14.5-13.78-.91-15.43-1.25-2.9-.58-7.22-2.27-7.61-1.67-.62.96,9.36,4.55,9.7,4.78.56.36,1.74,1.1,1.93,2.32.09.58-.31,1.56-1.22,2.26-.71.53-2.96,1.59-5.26.61-3.81-1.64-13.43-6.31-18.2-10.72-4.13-3.82-9.43-10.16-14.99-17.65-2.14-2.92-4.32-7.74-6.22-12l-.12-.27c-3.41-7.65-4.98-10.01-5.57-10.88-.08-.12-.16-.25-.18-.28-.71-1.67-11.83-12.8-14.22-14.47l-2.01-1.4c-1.62-1.12-3.77-2.61-5.56-3.9-.26.48-.49.98-.68,1.49-4.26,11.78,22.96,75.98,69.22,91.77.79-.61,1.56-1.26,2.31-1.93,4.53-4.03,8.8-8.32,13.26-12.43h-.03Z"/>
  <path class="cls-1" d="M366.15,261.13c-.86-2.57.62-7.96,1.54-8.31,2.09,1.89,3.57,2.45,3.93,5,7.34-6.53,15.01-12.51,24.31-16.15,10.41-4.07,21.47-6.62,31.81-10.86-.33-2.38-.81-4.75-1.43-7.07-1.18.68-2.37,1.36-3.57,1.98-11.98,6.14-25.18,8.94-37.4,14.47-12.36,5.61-21.42,14.23-31.01,23.57-1.74,1.71-3.57,3.54-5.51,5.36,3.4.19,6.81.19,10.21,0,2.63-2.27,5.19-4.59,7.75-6.94-.28-.29-.51-.64-.65-1.02l.02-.03Z"/>
  <path class="cls-1" d="M409.58,248.57c-.49-1.43-.41-3.57-.07-5.59-2.9,1.05-5.78,2.14-8.64,3.34-11.75,4.94-20.41,12.65-29.42,21.3,15.59-2.78,30.69-8.83,41.36-15.86-.08-.02-.15-.05-.23-.09-1.29-.88-2.58-1.86-2.99-3.1h-.01Z"/>
  <path class="cls-1" d="M354.78,257.24c8.03-7.59,16.26-14.95,26.52-19.4l1.19-.5c-.04-.24-.08-.49-.12-.73-.29-1.59.48-2.1,1.4-3.51.41.05,1.43,1.57,1.87,2.98,11.06-4.2,22.75-6.79,33.41-11.98,2.18-1.07,4.29-2.25,6.37-3.49-.49-1.62-1.05-3.26-1.68-4.92-2.56,1.62-5.23,3.05-8,4.29-11.77,5.27-24.2,8.74-36.18,13.48-12.82,5.07-23.08,11.85-32.97,21.47-3.85,3.75-7.86,7.96-12.15,11.8,2.63.75,5.31,1.33,8.02,1.74.23-.18.46-.36.66-.53,4.01-3.43,7.82-7.07,11.66-10.72v.03Z"/>
  <path class="cls-1" d="M416.92,244.54c.13,1.32.31,2.71.38,4,4.97-3.91,8.49-8.02,9.93-11.95-3.89,1.53-7.82,2.92-11.76,4.29.78.89,1.29,1.94,1.45,3.64h0Z"/>
</svg>